<?xml version="1.0" encoding="UTF-8" standalone="no"?><!DOCTYPE svg PUBLIC "-//W3C//DTD SVG 20010904//EN"
 "http://www.w3.org/Graphics/SVG/1.1/DTD/svg11.dtd">
<svg version="1.1" baseProfile="full" xmlns="http://www.w3.org/2000/svg"
 width="1024pt" height="1024pt" viewBox="0 0 1024 1024" preserveAspectRatio="xMidYMid meet">
<g id="svg" fill="black" stroke="none" stroke-linecap="round" transform="scale(0.1,0.1)">
<path d="M0 5390l43 0 c24 0 47 3 52 8 6 4 7 45 2 104 l-8 97 206 -1 207 -2 -4 -51 
-3 -50 53 -3 52 -3 0 55 0 56 48 0 48 0 1 100 2 100 51 0 50 0 0 -50 c0 -38 4 -50 15 -50 
8 0 31 -3 51 -6 l36 -7 -2 114 c-1 63 -1 133 -1 157 l1 43 48 -3 47 -3 5 -145 
c3 -80 4 -156 2 -170 -1 -14 -3 -81 -3 -150 -1 -69 -1 -138 -1 -155 0 -10 0 -78 2 -175 
0 -64 1 -140 2 -220 3 -201 1 -396 -3 -435 -4 -38 -5 -132 -2 -207 l6 -137 42 -7 
c40 -5 43 -8 49 -42 3 -21 6 -63 6 -94 l0 -58 50 0 50 0 0 -200 0 -200 50 0 
50 0 0 -94 0 -95 48 -3 47 -3 2 -100 c0 -55 1 -123 2 -151 l1 -51 50 -6 
50 -6 0 -46 0 -45 45 0 45 0 0 -50 0 -50 -94 0 c-89 0 -94 1 -100 23 -3 12 -6 32 -6 43 
0 20 -7 22 -95 29 l-95 7 0 49 0 49 -50 0 -50 0 0 -49 0 -48 45 -6 45 -7 2 -82 
c0 -46 2 -112 2 -148 l1 -65 38 -2 c20 -2 41 -6 47 -11 5 -4 12 -43 15 -87 
3 -44 10 -83 16 -87 5 -5 25 -8 44 -8 l35 0 0 -50 0 -50 50 0 50 0 0 -50 
0 -50 55 0 55 0 0 -100 0 -100 50 0 50 0 0 -50 c0 -47 2 -50 28 -52 15 -2 57 -1 95 1 
l67 3 0 -51 0 -51 40 6 c21 4 46 4 55 0 8 -3 77 -8 153 -9 76 -2 144 -7 150 -11 
7 -4 12 -25 12 -47 l0 -39 50 0 50 0 0 -50 0 -50 51 0 52 0 -7 -84 c-4 -46 -4 -113 0 -150 
l7 -66 98 0 99 0 0 -50 c0 -47 2 -50 28 -52 15 -2 60 -1 100 1 l74 3 -7 -56 
-7 -56 50 0 51 0 7 -47 6 -47 c-30 -4 -88 -4 -128 0 l-73 7 -7 42 -6 43 -104 6 
c-57 3 -123 5 -146 4 l-43 -3 -3 -47 -3 -48 -100 0 -99 0 0 44 c0 41 -2 44 -31 50 
-17 3 -40 6 -51 6 -19 0 -20 -5 -13 -100 l7 -100 -107 0 -107 0 3 -102 4 -103 -47 -3 
-47 -3 -6 -44 -7 -43 -46 1 -47 2 -3 -52 -3 -53 -50 0 -49 0 0 -300 0 -300 
0 0 -845 0 -845 0 0 5120 0 270 z" fill="rgb(208, 195, 186)"/>
<path d="M3002 1096c0 0 0 0 0 0 31 4 85 3 121 0 l65 -7 5 -38 5 -38 77 -6 c43 -4 112 -7 153 -7 
l75 0 -5 -50 -5 -50 c-66 0 -131 -3 -149 -6 -20 -4 -37 -12 -39 -18 -2 -6 -6 -23 -9 -38 
-5 -24 -11 -27 -53 -30 l-46 -3 -1 -55 -1 -55 -45 0 c-25 0 -68 -1 -97 -2 
l-52 -3 -7 -45 -6 -45 -94 0 c-91 0 -94 1 -94 23 0 12 -3 32 -6 45 -5 19 -13 22 -51 22 
l-45 0 -6 -45 -5 -45 -42 0 -43 0 -4 -57 c-1 -32 -2 -77 0 -101 l3 -43 94 -2 
93 -2 4 -35 c3 -19 3 -86 1 -147 l-3 -113 100 0 100 0 0 -50 0 -50 -1300 0 
0 300 0 300 49 0 50 0 3 53 3 52 47 -2 46 -1 7 43 6 44 47 3 47 3 -4 103 
-3 102 107 0 107 0 -7 100 c-7 95 -6 100 13 100 11 0 34 -3 51 -6 29 -6 31 -9 31 -50 
l0 -44 99 0 100 0 3 48 3 47 43 3 c23 1 89 -1 146 -4 l104 -6 6 -43 7 -42 73 -7 
c40 -4 98 -4 128 0 z" fill="rgb(218, 194, 184)"/>
<path d="M3493 900c5 0 10 0 15 0 59 0 131 -2 179 -5 10 0 19 -1 26 -1 l77 -7 0 -43 
0 -44 108 -2 c59 -2 151 -1 205 1 l97 3 0 -51 0 -51 44 0 c25 0 47 -3 49 -7 
3 -5 3 -50 0 -100 l-6 -93 -48 0 -49 0 0 -50 0 -50 55 0 55 0 0 -50 0 -50 64 0 
c35 0 78 -3 95 -6 30 -6 31 -9 31 -55 l0 -49 49 0 49 0 6 -45 7 -45 67 -2 
c37 -2 102 -1 145 1 l77 3 0 -51 0 -51 -1900 0 0 50 0 50 -100 0 -100 0 3 113 
c2 61 2 128 -1 147 l-4 35 -93 2 -94 2 -3 43 c-2 24 -1 69 0 101 l4 57 43 0 
42 0 5 45 6 45 45 0 c38 0 46 -3 51 -22 3 -13 6 -33 6 -45 0 -22 3 -23 94 -23 
l94 0 6 45 7 45 52 3 c29 1 72 2 97 2 l45 0 1 55 1 55 46 3 c42 3 48 6 53 30 
3 15 7 32 9 38 2 6 19 14 39 18 18 3 83 6 149 6 z" fill="rgb(225, 193, 183)"/>
<path d="M3687 895l5 40 c1 11 2 33 2 60 l148 4 146 4 7 43 6 42 99 8 100 7 0 48 c0 48 1 49 30 49 
17 0 59 -3 94 -6 l65 -7 6 -37 6 -37 65 -7 c24 -2 112 -4 223 -5 l7 -51 
7 -50 92 0 93 0 7 -49 7 -49 89 -7 c64 -5 93 -4 104 5 10 8 39 10 100 5 
47 -4 132 -4 189 0 l104 7 7 44 6 44 294 0 294 0 6 44 7 44 98 7 98 7 -2 51 
-1 52 147 -3 147 -3 3 48 3 48 103 3 c56 1 124 2 151 2 l50 -1 3 48 3 48 93 3 
92 3 0 48 c0 26 2 50 5 53 3 3 24 1 47 -5 30 -7 46 -7 59 1 13 8 31 9 58 3 
22 -5 42 -6 46 -3 3 3 5 27 5 53 l0 47 89 7 90 7 3 42 3 41 53 3 52 3 0 48 
0 48 44 6 c43 6 43 7 49 52 l7 45 95 0 95 0 0 38 c0 20 4 42 8 47 4 6 51 11 105 12 
l97 3 0 50 0 50 44 0 43 0 7 50 7 50 43 0 44 0 7 51 7 51 47 -4 46 -3 3 46 
c2 36 7 48 23 53 10 3 30 6 42 6 23 0 24 4 30 95 l6 95 51 0 50 0 0 49 0 49 50 7 
50 7 0 43 0 43 48 9 47 8 0 98 -1 97 53 0 53 0 0 45 0 45 49 0 48 0 -2 105 
-2 105 48 0 47 0 7 99 7 99 43 5 c38 6 43 10 49 38 3 17 4 47 1 68 -2 20 0 48 5 64 
7 24 13 27 55 27 l47 0 -2 313 c-2 171 -2 329 -1 350 l1 38 49 -7 50 -6 3 108 
c2 60 1 466 -2 901 l-4 793 -49 6 -49 7 4 51 3 51 -51 3 -51 3 -7 94 -6 95 -45 0 
-47 0 c-1 34 -3 60 -4 69 -6 29 -9 31 -50 31 l-44 0 0 100 0 100 -50 0 -50 0 -1 43 
c-1 23 0 48 1 56 1 8 -1 34 -5 58 l-6 43 -44 0 -43 0 -7 50 -7 50 -44 0 
-44 0 0 50 0 50 -55 0 -55 0 0 49 0 49 -44 6 c-42 7 -44 9 -49 44 -2 20 0 42 5 49 
6 7 5 27 -2 52 -11 40 -12 41 -55 41 -24 0 -47 5 -51 11 -3 6 -3 47 1 92 
0 1 0 3 0 4 5 58 4 88 -4 94 -6 5 -29 9 -51 9 l-40 0 -2 48 c-1 26 -3 74 -3 107 
-1 33 0 77 2 98 5 36 5 37 48 37 43 0 43 -1 50 -40 7 -39 7 -40 50 -40 36 0 44 4 49 22 
2 9 2 34 1 63 l50 0 50 0 3 -47 3 -48 50 0 49 0 0 -55 0 -55 44 0 c37 0 45 -4 50 -22 
3 -13 6 -33 6 -45 0 -21 5 -23 50 -23 l50 0 0 50 0 50 50 0 50 0 0 -49 0 -49 44 -6 
45 -7 3 -47 3 -47 47 -3 47 -3 7 -45 6 -44 92 -2 c50 -2 116 -3 146 -3 l55 0 3 -46 
3 -47 45 -7 44 -6 0 -58 c0 -32 3 -72 6 -89 6 -29 10 -31 53 -34 l46 -3 0 -55 
0 -55 54 -3 53 -3 -7 99 c-4 57 -3 102 2 105 5 3 28 3 50 0 41 -5 42 -7 45 -47 
l3 -41 52 -3 52 -3 7 -45 6 -45 52 3 51 3 3 42 3 43 60 0 59 0 0 -2080 0 -5120 -4275 0 
-1075 0 0 51 0 51 -77 -3 c-43 -2 -108 -3 -145 -1 l-67 2 -7 45 -6 45 -49 0 
-49 0 0 49 c0 46 -1 49 -31 55 -17 3 -60 6 -95 6 l-64 0 0 50 0 50 -55 0 
-55 0 0 50 0 50 49 0 48 0 6 93 c3 50 3 95 0 100 -2 4 -24 7 -49 7 l-44 0 0 51 
0 51 -97 -3 c-54 -2 -146 -3 -205 -1 l-108 2 0 44 0 43 -77 7 c-7 0 -16 1 -26 1 
z" fill="rgb(234, 186, 178)"/>
<path d="M4689 1101c54 -1 112 -1 171 -1 l330 0 0 49 0 50 53 3 c12 1 32 1 55 1 28 1 61 0 90 0 
50 -2 115 2 142 7 35 7 54 7 65 -1 9 -7 43 -8 100 -4 58 5 89 4 99 -4 9 -8 55 -9 157 -4 
l144 8 3 40 3 41 119 12 c66 7 156 12 200 12 l80 0 0 44 0 44 113 -1 c61 -1 127 2 145 6 
31 8 32 11 32 58 0 46 2 50 20 45 11 -3 34 -6 50 -6 17 0 55 0 85 0 l55 0 0 49 
0 48 50 6 50 6 0 47 0 47 71 -6 c39 -3 84 -3 100 0 29 5 29 7 23 54 l-7 49 57 0 
56 0 0 43 0 44 64 11 c35 7 99 12 143 12 l80 0 6 45 7 45 50 0 50 0 0 50 
0 50 50 0 50 0 0 44 0 44 50 7 50 7 -3 46 -2 47 53 3 52 3 0 49 0 49 42 3 
43 3 3 48 3 47 47 3 47 2 13 91 12 92 35 6 c19 3 60 9 89 12 l55 6 3 47 
3 46 45 5 c40 4 46 8 51 35 4 17 7 56 8 87 l1 57 50 7 50 7 -1 140 c0 89 3 143 10 148 
6 5 26 9 45 9 l34 0 7 95 7 94 43 6 42 7 9 96 9 97 40 5 40 5 7 60 c4 33 8 122 9 197 
l1 137 41 3 42 3 13 115 c8 70 11 164 7 241 l-6 127 46 6 c40 7 45 10 46 34 
0 15 4 86 8 157 4 72 4 297 0 500 -2 101 -2 210 -2 305 0 97 2 180 4 224 
6 108 5 172 -2 199 -6 22 -10 56 -8 76 1 20 1 52 0 72 -1 36 -3 37 -46 43 
-25 4 -45 9 -45 12 0 2 0 75 0 163 0 43 -1 87 -2 121 l47 0 45 0 6 -95 7 -94 51 -3 
51 -3 -3 -51 -4 -51 49 -7 49 -6 4 -793 c3 -435 4 -841 2 -901 l-3 -108 -50 6 
-49 7 -1 -38 c-1 -21 -1 -179 1 -350 l2 -313 -47 0 c-42 0 -48 -3 -55 -27 
-5 -16 -7 -44 -5 -64 3 -21 2 -51 -1 -68 -6 -28 -11 -32 -49 -38 l-43 -5 -7 -99 
-7 -99 -47 0 -48 0 2 -105 2 -105 -48 0 -49 0 0 -45 0 -45 -53 0 -53 0 1 -97 
0 -98 -47 -8 -48 -9 0 -43 0 -43 -50 -7 -50 -7 0 -49 0 -49 -50 0 -51 0 -6 -95 
c-6 -91 -7 -95 -30 -95 -12 0 -32 -3 -42 -6 -16 -5 -21 -17 -23 -53 l-3 -46 -46 3 
-47 4 -7 -51 -7 -51 -44 0 -43 0 -7 -50 -7 -50 -43 0 -44 0 0 -50 0 -50 -97 -3 
c-54 -1 -101 -6 -105 -12 -4 -5 -8 -27 -8 -47 l0 -38 -95 0 -95 0 -7 -45 
c-6 -45 -6 -46 -49 -52 l-44 -6 0 -48 0 -48 -52 -3 -53 -3 -3 -41 -3 -42 -90 -7 
-89 -7 0 -47 c0 -26 -2 -50 -5 -53 -4 -3 -24 -2 -46 3 -27 6 -45 5 -58 -3 
-13 -8 -29 -8 -59 -1 -23 6 -44 8 -47 5 -3 -3 -5 -27 -5 -53 l0 -48 -92 -3 
-93 -3 -3 -48 -3 -48 -50 1 c-27 0 -95 -1 -151 -2 l-103 -3 -3 -48 -3 -48 -147 3 
-147 3 1 -52 2 -51 -98 -7 -98 -7 -7 -44 -6 -44 -294 0 -294 0 -6 -44 -7 -44 -104 -7 
c-57 -4 -142 -4 -189 0 -61 5 -90 3 -100 -5 -11 -9 -40 -10 -104 -5 l-89 7 -7 49 
-7 49 -93 0 -92 0 -7 50 -7 51 z" fill="rgb(229, 174, 160)"/>
<path d="M1000 5200l51 0 48 0 3 -52 3 -53 51 3 52 3 6 -45 7 -45 52 -3 52 -3 3 -47 
3 -47 57 -11 64 -11 c3 -62 9 -120 17 -187 12 -101 40 -270 62 -375 3 -11 5 -22 7 -32 
29 -127 59 -228 111 -375 42 -118 93 -249 113 -290 l37 -75 0 -18 47 -86 
c26 -47 74 -133 107 -191 11 -19 29 -47 50 -79 41 -63 96 -143 145 -210 
95 -131 183 -236 302 -362 7 -7 14 -14 20 -21 92 -95 214 -212 282 -270 
73 -62 165 -138 203 -169 2 -1 4 -3 6 -4 41 -32 116 -86 173 -125 59 -40 167 -105 240 -144 
65 -35 175 -90 257 -128 l-23 -31 c-18 -25 -19 -33 -10 -64 6 -20 9 -40 6 -45 
-3 -4 -27 -8 -54 -8 -27 0 -51 -4 -54 -8 -2 -4 -2 -27 1 -50 l6 -42 43 0 
44 0 0 -122 c0 -68 3 -133 6 -145 5 -19 13 -23 50 -23 l43 0 4 -117 c1 -34 2 -69 1 -98 
0 -27 -1 -49 -2 -60 l-5 -40 c-48 3 -120 5 -179 5 -5 0 -10 0 -15 0 l5 50 
5 50 -75 0 c-41 0 -110 3 -153 7 l-77 6 -5 38 -5 38 -65 7 c-36 3 -90 4 -121 0 
0 0 0 0 0 0 l-6 47 -7 47 -51 0 -50 0 7 56 7 56 -74 -3 c-40 -2 -85 -3 -100 -1 
-26 2 -28 5 -28 52 l0 50 -99 0 -98 0 -7 66 c-4 37 -4 104 0 150 l7 84 -52 0 
-51 0 0 50 0 50 -50 0 -50 0 0 39 c0 22 -5 43 -12 47 -6 4 -74 9 -150 11 
-76 1 -145 6 -153 9 -9 4 -34 4 -55 0 l-40 -6 0 51 0 51 -67 -3 c-38 -2 -80 -3 -95 -1 
-26 2 -28 5 -28 52 l0 50 -50 0 -50 0 0 100 0 100 -55 0 -55 0 0 50 0 50 -50 0 
-50 0 0 50 0 50 -35 0 c-19 0 -39 3 -44 8 -6 4 -13 43 -16 87 -3 44 -10 83 -15 87 
-6 5 -27 9 -47 11 l-38 2 -1 65 c0 36 -2 102 -2 148 l-2 82 -45 7 -45 6 0 48 
0 49 50 0 50 0 0 -49 0 -49 95 -7 c88 -7 95 -9 95 -29 0 -11 3 -31 6 -43 
6 -22 11 -23 100 -23 l94 0 0 50 0 50 -45 0 -45 0 0 45 0 46 -50 6 -50 6 -1 51 
c-1 28 -2 96 -2 151 l-2 100 -47 3 -48 3 0 95 0 94 -50 0 -50 0 0 200 0 200 -50 0 
-50 0 0 58 c0 31 -3 73 -6 94 -6 34 -9 37 -49 42 l-42 7 -6 137 c-3 75 -2 169 2 207 
4 39 6 234 3 435 -1 80 -2 156 -2 220 z" fill="rgb(189, 180, 163)"/>
<path d="M3694 995c1 29 0 64 -1 98 l-4 117 -43 0 c-37 0 -45 4 -50 23 -3 12 -6 77 -6 145 
l0 122 -44 0 -43 0 -6 42 c-3 23 -3 46 -1 50 3 4 27 8 54 8 27 0 51 4 54 8 
3 5 0 25 -6 45 -9 31 -8 39 10 64 l23 31 c8 -4 16 -8 24 -11 9 -5 20 -10 32 -15 
87 -37 218 -87 312 -118 107 -36 258 -81 335 -99 78 -19 228 -46 334 -60 
97 -12 161 -19 242 -22 52 -2 111 -3 190 -3 l0 -55 0 -55 85 0 c47 0 89 -3 94 -7 
4 -5 10 -27 13 -49 l6 -51 c-23 0 -43 0 -55 -1 l-53 -3 0 -50 0 -49 -330 0 
c-59 0 -117 0 -171 1 -111 1 -199 3 -223 5 l-65 7 -6 37 -6 37 -65 7 c-35 3 -77 6 -94 6 
-29 0 -30 -1 -30 -49 l0 -48 -100 -7 -99 -8 -6 -42 -7 -43 -146 -4 -148 -4 
z" fill="rgb(212, 172, 151)"/>
<path d="M5298 1203l-6 51 c-3 22 -9 44 -13 49 -5 4 -47 7 -94 7 l-85 0 0 55 0 55 
c2 0 3 0 5 0 56 0 112 1 162 2 70 2 127 5 148 8 36 6 93 13 128 18 34 4 71 6 83 4 
11 -2 107 15 212 38 25 5 48 10 71 15 113 27 209 56 369 113 171 60 304 115 432 178 
102 50 254 135 338 188 83 53 230 158 325 234 94 75 233 198 308 272 74 74 178 185 230 245 
39 46 99 121 149 186 l20 -11 c10 -5 32 -10 49 -10 16 0 36 3 45 6 11 4 16 19 16 46 
0 39 2 41 40 51 34 10 41 16 46 44 3 18 12 37 20 44 8 6 14 30 14 54 0 42 1 43 40 49 
39 6 40 7 40 46 0 29 5 42 20 50 15 8 20 21 20 54 0 42 1 44 35 50 33 6 35 9 35 44 
0 21 5 43 12 50 7 7 29 12 50 12 l38 0 0 49 0 50 53 3 52 3 -5 50 c-3 28 -3 69 -2 92 
4 40 5 41 48 48 l45 6 6 145 6 146 41 6 41 7 10 105 c6 58 10 168 10 245 
l0 140 46 3 47 2 6 45 c4 25 4 49 1 55 -3 5 -7 253 -7 550 -1 297 1 542 5 546 
3 4 27 3 52 0 l45 -7 0 -100 0 -99 47 0 50 0 c0 -95 0 -204 2 -305 4 -203 4 -428 0 -500 
-4 -71 -8 -142 -8 -157 -1 -24 -6 -27 -46 -34 l-46 -6 6 -127 c4 -77 1 -171 -7 -241 
l-13 -115 -42 -3 -41 -3 -1 -137 c-1 -75 -5 -164 -9 -197 l-7 -60 -40 -5 
-40 -5 -9 -97 -9 -96 -42 -7 -43 -6 -7 -94 -7 -95 -34 0 c-19 0 -39 -4 -45 -9 
-7 -5 -10 -59 -10 -148 l1 -140 -50 -7 -50 -7 -1 -57 c-1 -31 -4 -70 -8 -87 
-5 -27 -11 -31 -51 -35 l-45 -5 -3 -46 -3 -47 -55 -6 c-29 -3 -70 -9 -89 -12 
l-35 -6 -12 -92 -13 -91 -47 -2 -47 -3 -3 -47 -3 -48 -43 -3 -42 -3 0 -49 
0 -49 -52 -3 -53 -3 2 -47 3 -46 -50 -7 -50 -7 0 -44 0 -44 -50 0 -50 0 0 -50 
0 -50 -50 0 -50 0 -7 -45 -6 -45 -80 0 c-44 0 -108 -5 -143 -12 l-64 -11 0 -44 
0 -43 -56 0 -57 0 7 -49 c6 -47 6 -49 -23 -54 -16 -3 -61 -3 -100 0 l-71 6 0 -47 
0 -47 -50 -6 -50 -6 0 -48 0 -49 -55 0 c-30 0 -68 0 -85 0 -16 0 -39 3 -50 6 
-18 5 -20 1 -20 -45 0 -47 -1 -50 -32 -58 -18 -4 -84 -7 -145 -6 l-113 1 0 -44 
0 -44 -80 0 c-44 0 -134 -5 -200 -12 l-119 -12 -3 -41 -3 -40 -144 -8 c-102 -5 -148 -4 -157 4 
-10 8 -41 9 -99 4 -57 -4 -91 -3 -100 4 -11 8 -30 8 -65 1 -27 -5 -92 -9 -142 -7 
-29 0 -62 1 -90 0 z" fill="rgb(227, 162, 148)"/>
<path d="M3687 1722l10 32 c6 21 7 40 1 50 -6 11 -23 16 -52 16 -41 0 -44 2 -50 31 
-3 17 -6 38 -6 47 0 12 10 14 55 9 l55 -6 0 44 0 43 94 7 95 7 4 36 c3 21 6 88 7 150 
l1 112 50 0 c34 0 51 5 55 15 3 8 1 30 -6 50 -11 33 -14 35 -56 35 -27 0 -47 5 -50 13 
-2 7 2 32 11 56 l15 43 c242 -141 471 -275 598 -349 107 -64 214 -125 296 -171 
l-13 -45 c-6 -23 -10 -67 -8 -97 l2 -55 -43 -3 c-36 -3 -45 -8 -53 -30 -8 -19 -8 -36 1 -59 
9 -26 8 -38 -5 -63 l-16 -31 61 -34 c33 -19 80 -45 105 -58 36 -19 48 -31 56 -60 
l9 -34 c-81 3 -145 10 -242 22 -106 14 -256 41 -334 60 -77 18 -228 63 -335 99 
-94 31 -225 81 -312 118 z" fill="rgb(211, 164, 104)"/>
<path d="M4910 1423l-9 34 c-8 29 -20 41 -56 60 -25 13 -72 39 -105 58 l-61 34 16 31 
c13 25 14 37 5 63 -9 23 -9 40 -1 59 8 22 17 27 53 30 l43 3 -2 55 c-2 30 2 74 8 97 
l13 45 c73 -41 127 -69 146 -77 65 -26 86 -30 158 -27 45 1 115 11 154 23 
7 1 14 4 22 7 l-2 -54 c-3 -37 1 -53 12 -62 11 -8 76 -13 195 -14 99 -2 183 1 187 5 
4 4 28 7 54 7 25 0 51 -5 58 -12 7 -7 12 -17 12 -24 0 -7 -43 -37 -95 -68 
-6 -3 -13 -7 -20 -12 -58 -34 -161 -94 -242 -141 -93 -54 -172 -104 -178 -110 
l-8 -11 c-50 -1 -106 -2 -162 -2 -2 0 -3 0 -5 0 -79 0 -138 1 -190 3 z" fill="rgb(241, 155, 106)"/>
<path d="M5267 1422l8 11 c6 6 85 56 178 110 81 47 184 107 242 141 l17 -42 16 -41 80 -7 
80 -7 11 -41 10 -41 c-23 -5 -46 -10 -71 -15 -105 -23 -201 -40 -212 -38 
-12 2 -49 0 -83 -4 -35 -5 -92 -12 -128 -18 -21 -3 -78 -6 -148 -8 z" fill="rgb(237, 138, 97)"/>
<path d="M5909 1505l-10 41 -11 41 -80 7 -80 7 -16 41 -17 42 c7 5 14 9 20 12 52 31 95 61 95 68 
0 7 -5 17 -12 24 -7 7 -33 12 -58 12 -26 0 -50 -3 -54 -7 -4 -4 -88 -7 -187 -5 
-119 1 -184 6 -195 14 -11 9 -15 25 -12 62 l2 54 c64 24 186 94 533 303 
266 159 755 444 1088 634 1 1 2 1 4 2 l16 -22 c16 -20 16 -20 65 8 28 15 167 95 310 177 
105 61 199 114 244 138 16 9 25 14 27 15 6 1 17 -15 25 -35 10 -30 19 -39 41 -40 
15 -2 36 -2 46 0 9 1 78 2 152 2 80 0 152 -5 176 -12 39 -13 41 -12 64 16 
23 29 24 29 67 15 l41 -13 c-31 -45 -64 -91 -91 -129 -13 -17 -27 -36 -42 -56 
-50 -65 -110 -140 -149 -186 -52 -60 -156 -171 -230 -245 -75 -74 -214 -197 -308 -272 
-95 -76 -242 -181 -325 -234 -84 -53 -236 -138 -338 -188 -128 -63 -261 -118 -432 -178 
-160 -57 -256 -86 -369 -113 z" fill="rgb(241, 130, 100)"/>
<path d="M2961 2145l20 28 c20 26 24 27 113 27 l93 0 7 77 c3 42 6 99 6 127 0 28 -3 61 -6 73 
-5 17 -15 23 -47 25 -41 3 -42 4 -49 47 -4 25 -5 47 -2 50 2 3 47 7 98 9 
l93 4 11 34 c9 32 13 34 54 34 34 0 46 5 57 22 11 18 11 23 -1 32 -7 6 -46 30 -86 54 
-39 23 -108 63 -152 88 -18 10 -35 20 -48 29 -20 12 -32 21 -32 24 0 4 6 16 14 26 
l14 20 c117 -68 245 -142 372 -215 136 -78 285 -165 430 -248 l-15 -43 c-9 -24 -13 -49 -11 -56 
3 -8 23 -13 50 -13 42 0 45 -2 56 -35 7 -20 9 -42 6 -50 -4 -10 -21 -15 -55 -15 
l-50 0 -1 -112 c-1 -62 -4 -129 -7 -150 l-4 -36 -95 -7 -94 -7 0 -43 0 -44 -55 6 
c-45 5 -55 3 -55 -9 0 -9 3 -30 6 -47 6 -29 9 -31 50 -31 29 0 46 -5 52 -16 
6 -10 5 -29 -1 -50 l-10 -32 c-12 5 -23 10 -32 15 -8 3 -16 7 -24 11 -82 38 -192 93 -257 128 
-73 39 -181 104 -240 144 -57 39 -132 93 -173 125 z" fill="rgb(188, 171, 109)"/>
<path d="M3920 2512c-145 83 -294 170 -430 248 -127 73 -255 147 -372 215 -217 127 -397 232 -457 269 
-93 58 -200 131 -237 162 -25 22 -59 57 -89 91 -2 3 -5 7 -8 10 -10 12 -19 24 -27 35 
-32 44 -68 109 -83 150 l-27 73 0 635 0 400 0 310 c0 187 0 350 0 490 0 72 0 139 1 200 
0 74 0 140 0 200 2 382 5 481 14 512 8 30 38 92 66 137 30 47 87 115 134 160 
44 42 82 73 155 120 l0 -3 c0 -3 -1 -6 -3 -6 -1 0 0 -21 2 -47 3 -27 3 -127 0 -223 
l5 -181 c-17 -26 -29 -51 -40 -79 l-29 -75 0 -312 0 -208 0 -207 1 -233 
c0 -20 0 -40 0 -60 0 -330 1 -625 3 -795 1 -38 1 -70 2 -95 l-11 -220 c1 -200 3 -228 24 -305 
14 -49 36 -102 57 -132 0 -1 1 -2 2 -3 19 -28 66 -80 104 -115 40 -37 93 -74 201 -138 
38 -23 82 -49 136 -79 76 -44 211 -122 365 -210 143 -83 302 -175 446 -258 
85 -49 175 -101 264 -153 215 -124 425 -244 541 -310 7 -4 13 -8 19 -11 
244 -140 289 -162 355 -175 41 -9 94 -16 116 -16 22 0 75 7 117 16 42 8 98 26 125 40 
24 12 235 133 480 276 19 11 39 22 58 33 62 36 134 78 212 123 130 75 277 160 420 242 
102 58 201 115 291 167 37 21 73 41 106 61 404 230 560 324 621 374 66 56 90 83 130 154 
24 41 44 86 54 119 3 9 5 17 6 24 5 24 7 180 8 488 1 137 1 304 1 503 -1 80 -1 165 -1 255 
l-1 342 -1 603 -1 245 -31 75 c-15 38 -28 62 -52 92 -2 3 -4 5 -7 8 -3 3 -6 7 -9 11 
-14 15 -31 33 -52 54 l-89 90 -194 111 -474 271 -57 33 c-281 161 -583 333 -784 447 
-84 48 -151 85 -191 108 -137 77 -301 171 -364 209 -8 5 -16 10 -24 14 -64 37 -124 65 -168 78 
-44 13 -101 24 -129 24 -27 0 -79 -7 -114 -15 -27 -6 -63 -21 -132 -58 -58 -31 -139 -78 -258 -147 
-80 -47 -207 -120 -351 -204 -8 -5 -16 -9 -24 -14 -82 -47 -169 -98 -256 -148 
-95 -55 -190 -110 -278 -161 -315 -183 -666 -386 -791 -459 -2 -1 -4 -3 -7 -4 
-190 -111 -213 -125 -267 -189 l-9 116 c-4 97 -2 113 14 130 10 10 25 38 34 61 
12 35 13 52 5 83 l-10 39 c15 9 31 19 48 29 102 61 389 228 699 408 82 47 165 95 247 142 
3 2 7 4 10 6 230 133 469 270 653 376 133 76 236 135 287 164 121 69 260 140 308 159 
48 19 117 40 152 46 10 2 18 3 25 4 32 4 54 3 92 -6 8 -2 16 -4 26 -6 65 -16 125 -47 372 -191 
65 -37 161 -93 272 -157 61 -35 126 -73 192 -111 80 -47 162 -94 241 -140 
38 -21 74 -42 110 -63 137 -79 305 -176 470 -270 180 -103 354 -203 477 -272 
413 -235 430 -245 509 -325 45 -45 98 -108 118 -141 20 -32 46 -90 56 -128 
7 -21 11 -41 14 -59 l-2 -45 2 -45 c-2 -48 -4 -148 -3 -244 l5 -206 c0 -52 0 -109 0 -170 
-1 -227 -1 -509 -2 -804 0 -1 0 -1 0 -1 -1 -491 -2 -781 -3 -955 -1 -30 -1 -56 -1 -80 
l1 -70 -6 -70 c-3 -46 -8 -59 -15 -77 -12 -31 -43 -90 -69 -130 -26 -40 -84 -107 -128 -149 
-49 -46 -126 -104 -196 -148 -18 -10 -55 -32 -107 -63 -136 -79 -371 -214 -611 -351 
-2 -1 -3 -1 -4 -2 -333 -190 -822 -475 -1088 -634 -347 -209 -469 -279 -533 -303 
-8 -3 -15 -6 -22 -7 -39 -12 -109 -22 -154 -23 -72 -3 -93 1 -158 27 -19 8 -73 36 -146 77 
-82 46 -189 107 -296 171 -127 74 -356 208 -598 349 z" fill="rgb(10, 19, 48)"/>
<path d="M2470 2588l15 12 c11 9 63 11 216 5 l201 -7 -2 53 c-1 30 -1 73 -1 97 l1 42 49 0 
c28 0 53 5 56 10 3 6 22 10 41 10 32 0 36 4 55 47 l21 48 c13 -9 30 -19 48 -29 
44 -25 113 -65 152 -88 40 -24 79 -48 86 -54 12 -9 12 -14 1 -32 -11 -17 -23 -22 -57 -22 
-41 0 -45 -2 -54 -34 l-11 -34 -93 -4 c-51 -2 -96 -6 -98 -9 -3 -3 -2 -25 2 -50 
7 -43 8 -44 49 -47 32 -2 42 -8 47 -25 3 -12 6 -45 6 -73 0 -28 -3 -85 -6 -127 
l-7 -77 -93 0 c-89 0 -93 -1 -113 -27 l-20 -28 c-2 1 -4 3 -6 4 -38 31 -130 107 -203 169 
-68 58 -190 175 -282 270 z" fill="rgb(165, 172, 114)"/>
<path d="M4630 2482l0 4 c0 2 -2 4 -5 4 -3 0 -5 4 -5 9 0 6 5 13 12 17 6 4 94 13 195 20 
101 7 212 20 248 29 36 8 94 20 130 25 36 6 106 15 155 20 50 6 174 13 276 16 
124 4 189 3 196 -4 l10 -10 c-245 -143 -456 -264 -480 -276 -27 -14 -83 -32 -125 -40 
-42 -9 -95 -16 -117 -16 -22 0 -75 7 -116 16 -66 13 -111 35 -355 175 -6 3 -12 7 -19 11 
z" fill="rgb(244, 183, 104)"/>
<path d="M4089 2792l6 17 c4 13 18 19 53 22 42 4 48 7 57 35 10 30 12 31 93 37 60 5 85 4 95 -5 
7 -8 31 -12 59 -10 37 2 48 7 53 23 l7 21 c156 -89 269 -153 303 -172 69 -38 150 -77 180 -85 
30 -8 91 -15 135 -15 54 0 100 7 139 20 15 5 106 53 244 129 l21 -18 c13 -10 29 -11 60 -5 
22 5 79 9 126 9 47 0 131 8 188 18 56 9 118 17 137 17 28 0 37 -5 50 -31 
l17 -31 c-78 -45 -150 -87 -212 -123 -19 -11 -39 -22 -58 -33 l-10 10 c-7 7 -72 8 -196 4 
-102 -3 -226 -10 -276 -16 -49 -5 -119 -14 -155 -20 -36 -5 -94 -17 -130 -25 
-36 -9 -147 -22 -248 -29 -101 -7 -189 -16 -195 -20 -7 -4 -12 -11 -12 -17 
0 -5 2 -9 5 -9 3 0 5 -2 5 -4 l0 -4 c-116 66 -326 186 -541 310 z" fill="rgb(229, 171, 105)"/>
<path d="M2003 3181l36 19 c34 17 40 25 43 57 l3 38 100 5 100 5 -3 82 c-1 44 2 93 8 108 
7 17 14 24 22 18 l15 -6 2 -7 6 -3 c30 -34 64 -69 89 -91 37 -31 144 -104 237 -162 
60 -37 240 -142 457 -269 l-14 -20 c-8 -10 -14 -22 -14 -26 0 -3 12 -12 32 -24 
l-21 -48 c-19 -43 -23 -47 -55 -47 -19 0 -38 -4 -41 -10 -3 -5 -28 -10 -56 -10 
l-49 0 -1 -42 c0 -24 0 -67 1 -97 l2 -53 -201 7 c-153 6 -205 4 -216 -5 
l-15 -12 c-6 7 -13 14 -20 21 -119 126 -207 231 -302 362 -49 67 -104 147 -145 210 
z" fill="rgb(144, 172, 119)"/>
<path d="M4512 2932c-159 90 -362 205 -572 324 -5 3 -10 6 -15 9 -183 104 -361 206 -508 290 
-190 109 -329 190 -361 210 -47 29 -94 64 -127 94 -11 10 -21 19 -28 27 
-35 38 -58 74 -70 113 -10 31 -21 81 -24 111 0 1 -1 3 -1 5 l2 10 c0 3 0 175 -3 435 
0 179 2 398 3 630 l7 990 0 35 28 56 c15 31 49 78 75 104 34 34 149 106 419 261 
205 118 635 366 956 552 345 200 612 348 657 364 60 23 91 28 161 28 60 0 108 -7 155 -21 
16 -5 51 -22 108 -51 104 -55 281 -154 543 -304 239 -137 536 -306 755 -429 
l-279 -266 -278 -264 -110 -6 -65 -4 c-145 -8 -181 -13 -210 -30 -6 -3 -12 -8 -18 -13 
l-12 43 c-5 22 -9 66 -9 98 l-1 57 45 0 c25 0 69 5 99 10 53 10 54 11 61 50 
7 40 7 40 51 40 l44 0 0 49 c0 40 -4 50 -20 55 -11 3 -31 6 -45 6 -23 0 -25 3 -25 50 
l0 50 -50 0 -50 0 0 -49 c0 -46 -2 -49 -30 -55 -16 -3 -61 -3 -100 0 l-70 7 0 48 
0 49 -102 3 c-57 1 -283 2 -503 2 l-400 0 -3 -47 -3 -48 -43 0 -44 0 -6 45 
-7 45 -47 3 c-26 1 -71 1 -99 -1 l-53 -3 0 44 c0 32 -5 47 -16 51 -9 3 -31 6 -50 6 
l-34 0 0 -50 0 -50 -45 0 -45 0 0 -50 0 -51 -52 3 -53 3 -3 -46 c-2 -36 -7 -48 -23 -53 
-10 -3 -32 -6 -49 -6 -29 0 -30 1 -30 48 l0 47 -48 5 c-46 5 -47 6 -50 41 
-3 32 -6 36 -47 47 -35 9 -50 9 -72 -1 l-28 -13 c-2 2 -3 4 -5 6 -33 35 -63 61 -67 56 
-4 -4 -2 -11 6 -15 8 -5 12 -24 10 -50 -2 -23 2 -45 9 -51 7 -5 31 -11 55 -12 
l42 -3 -3 -58 -3 -59 53 4 53 3 3 -47 3 -48 49 0 48 0 7 -39 c6 -37 8 -39 54 -44 
28 -3 51 -12 54 -20 3 -8 -1 -28 -8 -46 l-13 -31 -6 7 c-4 3 -67 7 -141 8 
-74 1 -139 -2 -145 -5 -5 -3 -27 -105 -50 -225 -22 -121 -45 -244 -51 -273 
-6 -30 -13 -51 -15 -49 -3 3 -27 125 -55 272 -27 147 -52 272 -55 276 -3 5 -63 9 -135 9 
-71 0 -134 -4 -140 -9 -6 -4 -57 -217 -113 -472 l-101 -464 114 -3 c85 -2 116 1 122 10 
5 7 34 164 66 348 32 184 60 335 63 335 3 0 30 -153 59 -340 30 -187 58 -344 62 -350 
l9 -9 97 -3 c53 -2 103 -1 110 1 2 1 3 2 5 4 7 6 15 20 20 34 l15 33 c0 -8 0 -15 0 -18 
5 -31 2 -41 -14 -52 -17 -12 -20 -24 -18 -77 2 -35 8 -76 14 -92 9 -22 9 -32 0 -40 
l-11 -11 c-2 0 -4 1 -6 2 l-67 28 -317 3 -317 4 -6 -24 c-3 -12 -4 -174 -3 -358 
l3 -335 138 -3 c75 -1 138 1 138 5 l2 8 2 170 0 170 c4 62 8 110 8 110 l2 0 
78 -2 77 3 c6 0 11 0 15 -1 l33 -5 17 -9 c-23 1 -54 1 -95 -1 l-115 -5 -3 -204 
c-2 -138 1 -208 9 -217 7 -9 40 -14 97 -16 l86 -3 14 -48 c12 -44 15 -47 30 -35 
10 7 26 15 37 18 l24 3 c-12 -19 -31 -39 -42 -46 -15 -8 -103 -14 -287 -17 
l-265 -5 0 -120 0 -120 317 -3 c296 -2 322 -1 378 18 46 15 74 34 119 78 
43 43 63 73 77 113 16 47 18 90 18 339 1 120 1 190 -1 235 l7 5 c0 3 20 4 45 2 
l45 -4 0 -57 c0 -22 2 -115 4 -230 1 -45 1 -93 2 -141 4 -173 8 -317 10 -319 
l9 -4 c1 -20 3 -31 6 -32 l11 -6 -43 -47 c-24 -26 -131 -137 -239 -247 -38 -39 -73 -76 -102 -106 
-51 -55 -83 -90 -77 -88 4 2 39 35 90 85 42 41 95 94 152 152 23 23 45 46 66 67 
l13 -13 c8 -8 54 -12 154 -12 l142 0 6 -44 7 -44 93 -7 94 -7 6 -43 7 -43 84 -6 
c47 -3 201 -5 343 -3 141 1 265 -1 275 -5 9 -5 55 -7 101 -5 47 1 88 5 91 9 
4 3 51 4 106 1 l99 -6 0 52 0 51 155 0 155 0 0 45 c0 42 2 45 28 47 15 1 36 2 46 2 
15 1 22 -10 30 -44 l11 -45 78 -3 c46 -2 84 2 92 8 7 6 29 8 53 4 38 -6 41 -5 47 20 
3 14 7 37 10 51 4 20 12 25 34 25 15 0 35 -8 44 -18 15 -16 23 -17 63 -8 
l46 11 -4 -55 c-3 -48 -1 -55 15 -52 9 1 34 3 55 5 20 1 39 5 42 9 3 3 38 -23 78 -59 
40 -36 75 -64 78 -61 2 3 -39 45 -91 93 -92 85 -95 88 -78 107 13 15 15 25 7 46 
-5 15 -8 39 -6 55 3 25 6 27 52 27 l49 0 6 43 c4 23 6 47 5 52 l-2 10 136 -3 
c131 -3 135 -2 150 20 8 13 101 248 206 523 105 275 189 509 188 520 -3 19 -12 20 -148 23 
l-144 2 -3 0 c-2 0 -3 -3 -4 -7 0 -5 -3 -2 -6 6 -3 7 0 17 7 21 10 6 11 29 6 94 
-3 47 -2 86 2 86 5 0 10 81 11 180 l1 179 -160 6 -160 6 167 2 168 2 3 -192 
2 -193 104 0 c90 0 105 2 112 18 l7 17 1 425 c1 189 -2 359 -5 425 -1 15 -2 25 -3 28 
l-8 27 -104 0 -104 0 0 -97 -5 -5 c-3 -2 -5 -61 -6 -129 0 -98 -3 -126 -15 -131 
l-14 -8 -115 0 c-63 0 -131 3 -150 6 l-35 7 0 178 c0 99 -2 179 -5 179 -2 0 -29 2 -65 4 
-13 1 -27 2 -42 3 -85 5 -106 10 -124 27 -12 12 -27 42 -34 68 -10 38 -10 51 0 63 
7 8 27 15 45 15 21 0 35 6 39 16 3 9 6 23 6 32 0 8 7 24 17 34 9 10 29 18 44 18 
25 0 29 5 40 55 12 54 13 55 49 55 l36 0 10 67 11 68 c60 -34 113 -64 156 -87 
199 -112 389 -223 422 -248 37 -28 74 -68 98 -105 l31 -47 5 -43 c7 -25 11 -423 13 -1065 
l2 -940 c-1 -34 -2 -61 -2 -85 -3 -80 -6 -108 -12 -127 -2 -7 -4 -12 -7 -18 
-12 -31 -43 -80 -73 -112 -37 -41 -91 -81 -188 -140 -64 -39 -391 -226 -772 -442 
-68 -39 -138 -79 -209 -119 -92 -52 -183 -103 -268 -151 -149 -84 -284 -159 -390 -217 
-138 -76 -229 -124 -244 -129 -39 -13 -85 -20 -139 -20 -44 0 -105 7 -135 15 
-30 8 -111 47 -180 85 -34 19 -147 83 -303 172 z" fill="rgb(10, 19, 48)"/>
<path d="M6112 2768l-17 31 c-13 26 -22 31 -50 31 -19 0 -81 -8 -137 -17 -57 -10 -141 -18 -188 -18 
-47 0 -104 -4 -126 -9 -31 -6 -47 -5 -60 5 l-21 18 c106 58 241 133 390 217 
l15 -39 15 -37 78 5 c44 3 120 12 169 20 50 8 146 24 215 35 74 12 127 16 131 11 
l6 -11 c-143 -82 -290 -167 -420 -242 z" fill="rgb(233, 156, 102)"/>
<path d="M3379 3203l10 10 c5 5 31 13 57 18 41 8 49 7 61 -11 12 -17 23 -19 105 -15 
50 3 96 9 102 15 5 5 24 10 42 10 17 0 37 -7 44 -15 8 -9 29 -15 55 -15 
36 0 47 5 64 28 l21 28 c210 -119 413 -234 572 -324 l-7 -21 c-5 -16 -16 -21 -53 -23 
-28 -2 -52 2 -59 10 -10 9 -35 10 -95 5 -81 -6 -83 -7 -93 -37 -9 -28 -15 -31 -57 -35 
-35 -3 -49 -9 -53 -22 l-6 -17 c-89 52 -179 104 -264 153 -144 83 -303 175 -446 258 
z" fill="rgb(201, 173, 110)"/>
<path d="M6919 2857c240 137 475 272 611 351 l13 -26 11 -24 c-45 -24 -139 -77 -244 -138 
-143 -82 -282 -162 -310 -177 -49 -28 -49 -28 -65 -8 l-16 22 z" fill="rgb(228, 106, 102)"/>
<path d="M9098 6500c1 -34 2 -78 2 -121 0 -88 0 -161 0 -163 0 -3 20 -8 45 -12 43 -6 45 -7 46 -43 
1 -20 1 -52 0 -72 -2 -20 2 -54 8 -76 7 -27 8 -91 2 -199 -2 -44 -4 -127 -4 -224 
l-50 0 -47 0 0 99 0 100 -45 7 c-25 3 -49 4 -52 0 -4 -4 -6 -249 -5 -546 
0 -297 4 -545 7 -550 3 -6 3 -30 -1 -55 l-6 -45 -47 -2 -46 -3 0 -140 c0 -77 -4 -187 -10 -245 
l-10 -105 -41 -7 -41 -6 -6 -146 -6 -145 -45 -6 c-43 -7 -44 -8 -48 -48 
-1 -23 -1 -64 2 -92 l5 -50 -52 -3 -53 -3 0 -50 0 -49 -38 0 c-21 0 -43 -5 -50 -12 
-7 -7 -12 -29 -12 -50 0 -35 -2 -38 -35 -44 -34 -6 -35 -8 -35 -50 0 -33 -5 -46 -20 -54 
-15 -8 -20 -21 -20 -50 0 -39 -1 -40 -40 -46 -39 -6 -40 -7 -40 -49 0 -24 -6 -48 -14 -54 
-8 -7 -17 -26 -20 -44 -5 -28 -12 -34 -46 -44 -38 -10 -40 -12 -40 -51 0 -27 -5 -42 -16 -46 
-9 -3 -29 -6 -45 -6 -17 0 -39 5 -49 10 l-20 11 c15 20 29 39 42 56 27 38 60 84 91 129 
28 42 55 82 73 111 37 60 107 188 156 286 10 21 21 44 33 69 43 95 90 208 120 291 
36 100 85 263 111 362 28 110 57 260 74 386 20 141 32 271 36 410 5 151 2 258 -10 412 
-11 131 -30 274 -52 389 -19 103 -60 266 -94 375 -37 119 -92 268 -145 388 
-13 30 -28 63 -44 97 -42 88 -90 182 -122 239 -35 61 -102 165 -164 255 
l19 11 c14 7 18 23 20 64 l1 54 -49 3 -48 3 6 43 c6 35 3 46 -14 61 -12 11 -20 31 -20 51 
0 18 5 36 10 39 6 4 10 74 10 178 0 47 -1 92 -2 127 l52 0 50 0 0 -55 0 -54 49 -7 
50 -6 3 -42 c3 -40 4 -41 48 -47 l45 -6 c-4 -45 -4 -86 -1 -92 4 -6 27 -11 51 -11 
43 0 44 -1 55 -41 7 -25 8 -45 2 -52 -5 -7 -7 -29 -5 -49 5 -35 7 -37 49 -44 
l44 -6 0 -49 0 -49 55 0 55 0 0 -50 0 -50 44 0 44 0 7 -50 7 -50 43 0 44 0 6 -43 
c4 -24 6 -50 5 -58 -1 -8 -2 -33 -1 -56 l1 -43 50 0 50 0 0 -100 0 -100 44 0 
c41 0 44 -2 50 -31 1 -9 3 -35 4 -69 z" fill="rgb(226, 151, 148)"/>
<path d="M6532 3010l-6 11 c-4 5 -57 1 -131 -11 -69 -11 -165 -27 -215 -35 -49 -8 -125 -17 -169 -20 
l-78 -5 -15 37 -15 39 c85 48 176 99 268 151 71 40 141 80 209 119 l17 -39 
c14 -35 18 -38 52 -35 20 2 41 -1 46 -7 6 -6 62 -7 154 -3 139 7 145 6 159 -13 
l15 -22 c-90 -52 -189 -109 -291 -167 z" fill="rgb(231, 144, 102)"/>
<path d="M7554 3158l-11 24 -13 26 c52 31 89 53 107 63 70 44 147 102 196 148 44 42 102 109 128 149 
26 40 57 99 69 130 7 18 12 31 15 77 0 5 0 10 1 15 l35 0 c22 0 28 -6 38 -40 
11 -36 15 -40 46 -40 19 0 37 -5 41 -11 4 -8 42 -9 125 -4 l121 7 c0 -82 0 -128 1 -128 
l2 -2 c-12 -25 -23 -48 -33 -69 -49 -98 -119 -226 -156 -286 -18 -29 -45 -69 -73 -111 
l-41 13 c-43 14 -44 14 -67 -15 -23 -28 -25 -29 -64 -16 -24 7 -96 12 -176 12 
-74 0 -143 -1 -152 -2 -10 -2 -31 -2 -46 0 -22 1 -31 10 -41 40 -8 20 -19 36 -25 35 
-2 -1 -11 -6 -27 -15 z" fill="rgb(243, 114, 109)"/>
<path d="M1799 3555l0 444 161 -6 161 -6 -2 159 c0 87 0 180 0 207 1 47 1 47 36 47 
l35 0 0 -635 27 -73 c15 -41 51 -106 83 -150 8 -11 17 -23 27 -35 l-15 6 
c-8 6 -15 -1 -22 -18 -6 -15 -9 -64 -8 -108 l3 -82 -100 -5 -100 -5 -3 -38 
c-3 -32 -9 -40 -43 -57 l-36 -19 c-21 32 -39 60 -50 79 -33 58 -81 144 -107 191 
l-47 86 0 18 zm536 -58 l-6 3 -2 7 c3 -3 6 -7 8 -10 z" fill="rgb(111, 166, 130)"/>
<path d="M6823 3177l-15 22 c-14 19 -20 20 -159 13 -92 -4 -148 -3 -154 3 -5 6 -26 9 -46 7 
-34 -3 -38 0 -52 35 l-17 39 c381 216 708 403 772 442 97 59 151 99 188 140 
30 32 61 81 73 112 3 6 5 11 7 18 l37 -11 c34 -11 38 -16 43 -52 l5 -40 60 5 
c37 3 81 -1 115 -10 l54 -15 c-10 -33 -30 -78 -54 -119 -40 -71 -64 -98 -130 -154 
-61 -50 -217 -144 -621 -374 -33 -20 -69 -40 -106 -61 z" fill="rgb(234, 131, 104)"/>
<path d="M2878 3492l13 11 c8 7 35 15 61 18 32 4 51 3 58 -6 6 -7 43 -12 99 -13 50 -1 93 3 96 8 
3 6 23 10 44 10 22 0 44 -6 51 -15 7 -8 29 -15 50 -15 21 0 43 7 50 15 6 7 13 22 14 31 
l3 19 c147 -84 325 -186 508 -290 5 -3 10 -6 15 -9 l-21 -28 c-17 -23 -28 -28 -64 -28 
-26 0 -47 6 -55 15 -7 8 -27 15 -44 15 -18 0 -37 -5 -42 -10 -6 -6 -52 -12 -102 -15 
-82 -4 -93 -2 -105 15 -12 18 -20 19 -61 11 -26 -5 -52 -13 -57 -18 l-10 -10 
c-154 88 -289 166 -365 210 -54 30 -98 56 -136 79 z" fill="rgb(165, 172, 114)"/>
<path d="M2571 3748l24 16 c17 11 57 18 120 21 52 3 112 7 132 10 21 3 48 12 60 21 
13 8 22 20 20 27 l2 16 c33 -30 80 -65 127 -94 32 -20 171 -101 361 -210 
l-3 -19 c-1 -9 -8 -24 -14 -31 -7 -8 -29 -15 -50 -15 -21 0 -43 7 -50 15 
-7 9 -29 15 -51 15 -21 0 -41 -4 -44 -10 -3 -5 -46 -9 -96 -8 -56 1 -93 6 -99 13 
-7 9 -26 10 -58 6 -26 -3 -53 -11 -61 -18 l-13 -11 c-108 64 -161 101 -201 138 
-38 35 -85 87 -104 115 -1 1 -2 2 -2 3 z" fill="rgb(144, 172, 119)"/>
<path d="M3648 3609l6 -1 7 -2 c-51 -50 -86 -83 -90 -85 -6 -2 26 33 77 88 z" fill="rgb(15, 32, 83)"/>
<path d="M1538 4295l131 5 130 5 0 -306 0 -444 -37 75 c-20 41 -71 172 -113 290 -52 147 -82 248 -111 375 
z" fill="rgb(74, 138, 120)"/>
<path d="M8455 3572l-2 2 c-1 0 -1 46 -1 128 -1 141 -1 389 -2 698 0 218 0 467 0 731 
l0 666 0 301 1 584 c16 -34 31 -67 44 -97 53 -120 108 -269 145 -388 34 -109 75 -272 94 -375 
22 -115 41 -258 52 -389 12 -154 15 -261 10 -412 -4 -139 -16 -269 -36 -410 
-17 -126 -46 -276 -74 -386 -26 -99 -75 -262 -111 -362 -30 -83 -77 -196 -120 -291 
z" fill="rgb(227, 65, 101)"/>
<path d="M6672 6775c12 -7 23 -14 35 -20 l-11 -68 -10 -67 -36 0 c-36 0 -37 -1 -49 -55 
-11 -50 -15 -55 -40 -55 -15 0 -35 -8 -44 -18 -10 -10 -17 -26 -17 -34 0 -9 -3 -23 -6 -32 
-4 -10 -18 -16 -39 -16 -18 0 -38 -7 -45 -15 -10 -12 -10 -25 0 -63 7 -26 22 -56 34 -68 
18 -17 39 -22 124 -27 15 -1 29 -2 42 -3 l-75 -4 -75 0 0 -472 1 -473 101 -3 
c58 -2 105 1 110 7 l9 10 -1 186 0 186 160 -6 160 -6 -1 -179 c-1 -99 -6 -180 -11 -180 
-4 0 -5 -39 -2 -86 5 -65 4 -88 -6 -94 -7 -4 -10 -14 -7 -21 3 -8 6 -11 6 -6 
1 4 2 7 4 7 l3 0 -63 -172 c-35 -95 -86 -240 -115 -323 -28 -82 -55 -151 -58 -153 
-4 -1 -60 140 -125 314 -75 200 -125 319 -136 325 -10 5 -69 9 -131 9 -76 0 -120 -4 -131 -12 
-10 -8 -11 -19 11 -81 l-15 3 c-6 3 -16 22 -21 43 -10 36 -12 37 -56 37 
l-46 0 1 -92 c0 -19 0 -56 -1 -103 l-9 80 -10 80 c0 19 -1 31 -1 33 0 9 -33 12 -129 12 
-78 0 -132 -4 -136 -10 -2 -3 -4 -35 -5 -85 l-7 -185 1 -185 c-1 -98 -2 -190 -3 -237 
l-1 -138 -162 -2 -163 -3 0 -120 0 -120 460 0 460 0 3 123 3 122 -55 0 c-21 0 -41 3 -53 6 
-4 2 -8 4 -9 5 -5 8 -36 10 -100 6 l-39 -2 -21 6 c-17 5 -21 11 -26 113 
l123 -2 c67 -2 126 -5 130 -8 5 -3 23 3 41 13 18 10 37 21 42 25 6 4 5 12 -2 20 
-6 8 -15 41 -21 73 -1 6 -3 16 -7 28 l100 -263 94 -265 2 -10 c1 -5 -1 -29 -5 -52 
l-6 -43 -49 0 c-46 0 -49 -2 -52 -27 -2 -16 1 -40 6 -55 8 -21 6 -31 -7 -46 
-17 -19 -14 -22 78 -107 52 -48 93 -90 91 -93 -3 -3 -38 25 -78 61 -40 36 -75 62 -78 59 
-3 -4 -22 -8 -42 -9 -21 -2 -46 -4 -55 -5 -16 -3 -18 4 -15 52 l4 55 -46 -11 
c-40 -9 -48 -8 -63 8 -9 10 -29 18 -44 18 -22 0 -30 -5 -34 -25 -3 -14 -7 -37 -10 -51 
-6 -25 -9 -26 -47 -20 -24 4 -46 2 -53 -4 -8 -6 -46 -10 -92 -8 l-78 3 -11 45 
c-8 34 -15 45 -30 44 -10 0 -31 -1 -46 -2 -26 -2 -28 -5 -28 -47 l0 -45 -155 0 
-155 0 0 -51 0 -52 -99 6 c-55 3 -102 2 -106 -1 -3 -4 -44 -8 -91 -9 -46 -2 -92 0 -101 5 
-10 4 -134 6 -275 5 -142 -2 -296 0 -343 3 l-84 6 -7 43 -6 43 -94 7 -93 7 -7 44 
-6 44 -142 0 c-100 0 -146 4 -154 12 l-13 13 c93 96 161 169 161 174 l0 11 
374 0 c206 0 377 4 380 8 2 4 5 26 7 57 l7 40 -2 40 c1 47 0 87 -4 92 -6 9 -73 13 -257 15 
l-250 3 -3 73 -3 72 250 0 251 0 5 23 c3 12 5 72 3 132 l-3 110 -195 0 c-107 0 -221 1 -252 3 
l-58 2 0 85 0 85 255 0 c140 0 255 3 256 8 0 4 3 55 5 113 3 83 1 109 -9 118 
-11 8 -120 11 -398 9 l-384 -3 -5 -287 c-2 -78 -3 -150 -5 -203 -2 -53 -4 -87 -6 -89 
l-5 -5 c-2 115 -4 208 -4 230 l0 57 -45 4 c-25 2 -45 1 -45 -2 l-7 -5 c-3 58 -8 74 -21 104 
-13 29 -44 73 -68 97 -26 24 -68 52 -106 69 l11 11 c9 8 9 18 0 40 -6 16 -12 57 -14 92 
-2 53 1 65 18 77 16 11 19 21 14 52 0 3 0 10 0 18 2 47 19 168 47 335 29 173 55 308 58 300 
4 -8 31 -164 62 -346 31 -182 56 -336 56 -342 0 -9 35 -12 120 -12 103 0 120 2 120 16 
0 9 -41 201 -91 427 -24 111 -47 216 -65 297 l3 0 c2 0 3 -1 3 -2 0 -2 7 -11 14 -20 
7 -10 19 -18 26 -18 8 0 31 8 52 18 l40 17 c21 -77 48 -172 77 -274 88 -312 134 -457 145 -462 
9 -5 86 -6 171 -3 l155 7 6 26 c3 14 59 221 125 459 65 238 119 437 119 442 
0 6 -46 10 -113 10 l-114 0 -24 -87 -24 -88 -161 -3 -161 -2 -21 74 c-10 32 -16 65 -17 81 
0 4 0 7 1 9 3 9 1 22 -5 30 -6 7 -8 15 -5 19 3 3 -2 17 -12 32 -12 18 -17 42 -15 71 
l3 44 -51 0 c-27 0 -53 -4 -56 -10 -3 -5 -22 -10 -41 -10 -27 0 -36 -5 -43 -22 
-4 -13 -11 -35 -14 -50 -6 -21 -2 -30 23 -47 17 -12 25 -21 18 -21 -6 0 -26 11 -45 25 
-18 14 -66 53 -105 88 -40 34 -116 100 -169 147 -53 47 -102 90 -108 95 
-6 5 -35 36 -66 69 l28 13 c22 10 37 10 72 1 41 -11 44 -15 47 -47 3 -35 4 -36 50 -41 
l48 -5 0 -47 c0 -47 1 -48 30 -48 17 0 39 3 49 6 16 5 21 17 23 53 l3 46 53 -3 
52 -3 0 51 0 50 45 0 45 0 0 50 0 50 34 0 c19 0 41 -3 50 -6 11 -4 16 -19 16 -51 
l0 -44 53 3 c28 2 73 2 99 1 l47 -3 7 -45 6 -45 44 0 43 0 3 48 3 47 400 0 
c220 0 446 -1 503 -2 l102 -3 0 -49 0 -48 70 -7 c39 -3 84 -3 100 0 28 6 30 9 30 55 
l0 49 50 0 50 0 0 -50 c0 -47 2 -50 25 -50 14 0 34 -3 45 -6 16 -5 20 -15 20 -55 
l0 -49 -44 0 c-44 0 -44 0 -51 -40 -7 -39 -8 -40 -61 -50 -30 -5 -74 -10 -99 -10 
l-45 0 1 -57 c0 -32 4 -76 9 -98 l12 -43 c-14 -11 -28 -24 -36 -34 -8 -11 -12 -20 -15 -53 
-1 -17 -2 -39 -3 -70 -1 -56 0 -141 0 -272 l2 -368 28 -50 9 -18 -6 -9 c0 -5 -1 -9 -1 -11 
0 -2 2 -7 5 -10 l5 -7 -22 10 c-34 17 -67 30 -74 30 l-13 0 0 80 c-1 77 -2 80 -27 86 
-15 4 -73 4 -130 0 -7 0 -13 -1 -19 -1 l-42 5 -43 6 0 361 c0 323 -2 362 -16 367 
-9 3 -59 3 -110 0 l-94 -7 0 -214 c0 -106 -2 -197 -4 -218 0 -2 0 -4 0 -4 
-3 -4 -6 -70 -7 -147 l-1 -139 -129 -5 -128 -5 2 -100 2 -100 288 -2 c158 -2 307 -6 332 -9 
1 0 2 0 3 0 39 -5 42 -8 42 -34 0 -25 5 -31 40 -41 34 -10 41 -17 46 -46 
4 -20 13 -34 23 -35 9 -2 20 -2 24 0 5 1 13 -4 19 -12 l10 -15 -361 -1 c-198 0 -366 -4 -371 -8 
-7 -5 -9 -192 -8 -543 l3 -534 128 -3 c96 -2 129 1 132 10 1 3 2 30 3 73 
l8 300 0 300 2 135 6 0 c2 0 3 -1 4 -2 1 0 2 -2 2 -3 0 -3 0 -54 0 -115 
l0 -110 39 0 c34 0 39 -3 44 -27 3 -16 3 -62 0 -104 -3 -42 -3 -97 1 -122 
6 -41 10 -47 32 -47 13 0 33 3 44 6 16 5 20 15 20 49 0 42 1 43 38 46 20 2 43 5 50 5 
8 1 12 19 12 52 0 43 3 50 22 55 12 3 48 -3 80 -13 41 -14 62 -17 72 -10 
7 6 17 27 21 48 4 20 9 66 11 102 2 36 -1 76 -5 90 -5 14 -14 42 -21 63 
-7 24 -17 37 -29 37 l-18 0 -7 8 c-2 1 -23 3 -56 5 l55 7 c32 0 55 4 55 11 
0 5 5 7 10 4 0 0 0 0 0 0 6 -4 10 5 10 19 0 16 6 26 15 27 l16 1 -1 -41 
c0 -30 5 -44 22 -55 12 -9 26 -16 30 -16 3 0 6 31 7 79 1 31 2 68 2 109 
0 103 1 210 2 237 l2 48 78 5 132 13 c60 -1 122 -1 170 -1 l165 0 0 100 
0 100 -115 0 -163 11 c-89 3 -164 8 -167 11 -2 2 -4 88 -5 198 l20 0 c12 0 34 -7 49 -15 
20 -10 30 -24 34 -50 6 -34 7 -35 51 -35 45 0 46 0 52 39 l6 39 94 7 c93 7 94 7 95 33 
0 15 3 62 5 105 l5 77 -35 0 c-19 0 -41 3 -50 6 -12 5 -16 20 -16 60 l0 54 -112 2 
-113 8 c24 -1 64 -2 107 -1 68 1 125 4 127 7 l4 5 c67 1 114 2 116 5 l5 5 
0 81 0 81 -24 9 c-14 5 -34 6 -45 3 0 0 0 0 0 0 l-41 8 c-23 5 -56 7 -75 5 
l-34 -3 278 264 279 266 z" fill="rgb(26, 35, 78)"/>
<path d="M4032 4009l4 0 4 1 0 -11 c0 -5 -68 -78 -161 -174 -21 -21 -43 -44 -66 -67 
-57 -58 -110 -111 -152 -152 l-7 2 -6 1 c29 30 64 67 102 106 108 110 215 221 239 247 
l43 47 z" fill="rgb(30, 46, 103)"/>
<path d="M8051 3995l7 470 c0 27 0 54 1 80 l9 -72 3 -73 189 0 190 0 c1 -309 1 -557 2 -698 
l-121 -7 c-83 -5 -121 -4 -125 4 -4 6 -22 11 -41 11 -31 0 -35 4 -46 40 
-10 34 -16 40 -38 40 l-35 0 c1 28 3 68 4 125 0 24 0 50 1 80 z" fill="rgb(240, 104, 112)"/>
<path d="M2501 4405c1 -32 1 -51 2 -56 l7 -46 69 -7 c38 -3 104 -3 147 1 l79 6 c0 -101 0 -168 1 -188 
0 -2 1 -4 1 -5 3 -30 14 -80 24 -111 12 -39 35 -75 70 -113 7 -8 17 -17 28 -27 
l-2 -16 c2 -7 -7 -19 -20 -27 -12 -9 -39 -18 -60 -21 -20 -3 -80 -7 -132 -10 
-63 -3 -103 -10 -120 -21 l-24 -16 c-21 30 -43 83 -57 132 -21 77 -23 105 -24 305 
l11 220 z" fill="rgb(117, 165, 132)"/>
<path d="M8050 3915c-1 -57 -3 -97 -4 -125 -1 -5 -1 -10 -1 -15 l6 70 -1 70 z" fill="rgb(97, 50, 70)"/>
<path d="M7734 3885l-54 15 c-34 9 -78 13 -115 10 l-60 -5 -5 40 c-5 36 -9 41 -43 52 
l-37 11 c6 19 9 47 12 127 l2 85 c0 50 1 111 1 189 l159 -6 154 -6 c-1 -308 -3 -464 -8 -488 
-1 -7 -3 -15 -6 -24 z" fill="rgb(227, 119, 114)"/>
<path d="M2190 4400l-35 0 c-35 0 -35 0 -36 -47 0 -27 0 -120 0 -207 l2 -159 -161 6 
-161 6 0 306 0 395 160 -5 160 -5 -4 55 -3 55 39 0 39 0 0 -400 z" fill="rgb(94, 159, 141)"/>
<path d="M8054 4951l2 -6 c2 -6 3 -179 3 -400 -1 -26 -1 -53 -1 -80 l-7 -470 c1 174 2 464 3 955 
0 0 0 0 0 1 z" fill="rgb(146, 62, 87)"/>
<path d="M3698 5065c38 -17 80 -45 106 -69 24 -24 55 -68 68 -97 13 -30 18 -46 21 -104 
2 -45 2 -115 1 -235 0 -249 -2 -292 -18 -339 -14 -40 -34 -70 -77 -113 -45 -44 -73 -63 -119 -78 
-56 -19 -82 -20 -378 -18 l-317 3 0 120 0 120 265 5 c184 3 272 9 287 17 
11 7 30 27 42 46 0 0 0 0 0 1 19 31 21 48 21 225 0 143 -4 200 -14 226 -8 19 -27 39 -43 47 
-10 5 -25 8 -48 9 l-17 9 -8 5 c-14 6 -29 8 -35 6 l-8 -4 c-23 1 -56 2 -84 1 
l-68 -3 -2 0 c0 0 -4 -48 -8 -110 0 -4 0 -9 0 -13 -5 -76 -13 -131 -21 -144 
-8 -12 -14 -27 -14 -35 0 -7 7 -13 15 -13 12 0 15 -15 16 -67 l2 -68 -2 -8 
c0 -4 -63 -6 -138 -5 l-138 3 -3 335 c-1 184 0 346 3 358 l6 24 317 -4 317 -3 67 -28 
c2 -1 4 -2 6 -2 z" fill="rgb(254, 254, 254)"/>
<path d="M4015 4047c-3 42 -5 124 -5 254 0 153 0 285 -1 292 l-4 12 c2 53 3 125 5 203 
l5 287 384 3 c278 2 387 -1 398 -9 10 -9 12 -35 9 -118 -2 -58 -5 -109 -5 -113 
-1 -5 -116 -8 -256 -8 l-255 0 0 -85 0 -85 58 -2 c31 -2 145 -3 252 -3 l195 0 3 -110 
c2 -60 0 -120 -3 -132 l-5 -23 -251 0 -250 0 3 -72 3 -73 250 -3 c184 -2 251 -6 257 -15 
4 -5 5 -45 4 -92 -1 -8 -1 -16 -1 -24 -1 -20 -3 -39 -4 -56 -2 -31 -5 -53 -7 -57 
-3 -4 -174 -8 -380 -8 l-374 0 -4 -1 -4 0 -11 6 c-3 1 -5 12 -6 32 z" fill="rgb(254, 254, 254)"/>
<path d="M5672 5101l9 -20 c5 -11 9 -64 9 -118 l0 -98 c-5 3 -10 1 -10 -4 0 -7 -23 -11 -55 -11 
l-55 -7 c-39 3 -95 4 -156 6 -144 2 -204 0 -205 -8 l-1 -11 -2 -135 -2 -262 
c-2 -139 -4 -263 -6 -338 -1 -43 -2 -70 -3 -73 -3 -9 -36 -12 -132 -10 l-128 3 -3 534 
c-1 351 1 538 8 543 5 4 173 8 371 8 l361 1 z" fill="rgb(254, 254, 254)"/>
<path d="M6081 5055c0 -64 1 -214 2 -385 l1 -250 1 -155 103 -3 105 4 c12 -3 32 -6 53 -6 
l55 0 -3 -122 -3 -123 -460 0 -460 0 0 120 0 120 163 3 162 2 1 138 c1 47 2 139 3 237 
0 57 1 117 2 172 0 76 2 146 4 198 1 50 3 82 5 85 4 6 58 10 136 10 96 0 129 -3 129 -12 
0 -2 1 -14 1 -33 z" fill="rgb(254, 254, 254)"/>
<path d="M6598 4015l-94 265 -100 263 c-16 56 -55 170 -98 282 -33 87 -55 144 -68 182 
-22 62 -21 73 -11 81 11 8 55 12 131 12 62 0 121 -4 131 -9 11 -6 61 -125 136 -325 
65 -174 121 -315 125 -314 3 2 30 71 58 153 29 83 80 228 115 323 l63 172 
144 -2 c136 -3 145 -4 148 -23 1 -11 -83 -245 -188 -520 -105 -275 -198 -510 -206 -523 
-15 -22 -19 -23 -150 -20 l-136 3 z" fill="rgb(254, 254, 254)"/>
<path d="M3994 4511l5 5 c2 2 4 36 6 89 l4 -12 c1 -7 1 -139 1 -292 0 -130 2 -212 5 -254 
l-9 4 c-2 2 -6 146 -10 319 -1 48 -1 96 -2 141 z" fill="rgb(66, 71, 101)"/>
<path d="M4801 4075c1 17 3 36 4 56 0 8 0 16 1 24 l2 -40 -7 -40 z" fill="rgb(113, 117, 145)"/>
<path d="M5198 4095c2 75 4 199 6 338 l2 262 0 -300 -8 -300 z" fill="rgb(128, 134, 163)"/>
<path d="M2806 4115c-1 20 -1 87 -1 188 0 71 0 158 0 257 3 -260 3 -432 3 -435 l-2 -10 
z" fill="rgb(197, 200, 199)"/>
<path d="M7434 4220l-2 -85 c0 24 1 51 2 85 z" fill="rgb(225, 159, 161)"/>
<path d="M7414 6268l8 -12 19 -53 0 -103 -2 -591 -1 -385 c0 -80 0 -155 0 -224 -1 -211 -2 -370 -3 -491 
0 -78 -1 -139 -1 -189 l-2 940 c-2 642 -6 1040 -13 1065 l-5 43 z" fill="rgb(233, 185, 191)"/>
<path d="M6293 4266l-105 -4 -103 3 -1 155 3 0 6 0 -3 -148 55 3 39 2 c64 4 95 2 100 -6 
1 -1 5 -3 9 -5 z" fill="rgb(52, 56, 90)"/>
<path d="M6145 4275l-55 -3 3 148 1 70 c2 -39 3 -71 4 -96 5 -102 9 -108 26 -113 l21 -6 
z" fill="rgb(9, 17, 59)"/>
<path d="M1452 4889c-2 31 -3 63 -4 98 l34 7 36 7 7 -51 7 -50 39 0 39 0 0 -49 c0 -40 4 -50 20 -55 
11 -3 54 -6 95 -6 l74 0 0 -90 0 -395 -130 -5 -131 -5 c-2 10 -4 21 -7 32 
-22 105 -50 274 -62 375 -8 67 -14 125 -17 187 z" fill="rgb(67, 132, 124)"/>
<path d="M2499 4500l96 0 105 0 0 50 0 50 52 0 53 0 0 0 0 0 c0 -14 0 -27 0 -40 0 -99 0 -186 0 -257 
l-79 -6 c-43 -4 -109 -4 -147 -1 l-69 7 -7 46 c-1 5 -1 24 -2 56 -1 25 -1 57 -2 95 
z" fill="rgb(94, 159, 141)"/>
<path d="M3495 4831c23 -1 38 -4 48 -9 16 -8 35 -28 43 -47 10 -26 14 -83 14 -226 
0 -177 -2 -194 -21 -225 0 -1 0 -1 0 -1 l-24 -3 c-11 -3 -27 -11 -37 -18 
-15 -12 -18 -9 -30 35 l-14 48 -86 3 c-57 2 -90 7 -97 16 -8 9 -11 79 -9 217 
l3 204 115 5 c41 2 72 2 95 1 z" fill="rgb(26, 35, 78)"/>
<path d="M5218 4828l209 2 206 0 18 0 c12 0 22 -13 29 -37 7 -21 16 -49 21 -63 4 -14 7 -54 5 -90 
-2 -36 -7 -82 -11 -102 -4 -21 -14 -42 -21 -48 -10 -7 -31 -4 -72 10 -32 10 -68 16 -80 13 
-19 -5 -22 -12 -22 -55 0 -33 -4 -51 -12 -52 -7 0 -30 -3 -50 -5 -37 -3 -38 -4 -38 -46 
0 -34 -4 -44 -20 -49 -11 -3 -31 -6 -44 -6 -22 0 -26 6 -32 47 -4 25 -4 80 -1 122 
3 42 3 88 0 104 -5 24 -10 27 -44 27 l-39 0 0 110 c0 61 0 112 0 115 0 1 -1 3 -2 3 
z" fill="rgb(47, 62, 121)"/>
<path d="M6238 5007c13 -38 35 -95 68 -182 43 -112 82 -226 98 -282 4 -12 6 -22 7 -28 
6 -32 15 -65 21 -73 7 -8 8 -16 2 -20 -5 -4 -24 -15 -42 -25 -18 -10 -36 -16 -41 -13 
-4 3 -63 6 -130 8 l-123 2 c-1 25 -2 57 -4 96 l2 98 c2 106 3 216 4 297 
0 3 0 7 0 10 1 47 1 84 1 103 l-1 92 46 0 c44 0 46 -1 56 -37 5 -21 15 -40 21 -43 
l15 -3 z" fill="rgb(33, 43, 92)"/>
<path d="M7748 4397l-154 6 -159 6 c1 121 2 280 3 491 l156 0 155 0 c0 -199 0 -366 -1 -503 
z" fill="rgb(218, 111, 121)"/>
<path d="M8056 5755l5 -25 c6 -20 7 -16 8 21 l1 45 190 1 190 0 0 -666 c0 -264 0 -513 0 -731 
l-190 0 -189 0 -3 73 -9 72 c0 221 -1 394 -3 400 l-2 6 c1 295 1 577 2 804 
z" fill="rgb(239, 86, 119)"/>
<path d="M3263 4395l-2 68 c-1 52 -4 67 -16 67 -8 0 -15 6 -15 13 0 8 6 23 14 35 8 13 16 68 21 144 
0 4 0 9 0 13 l0 -170 -2 -170 z" fill="rgb(174, 178, 191)"/>
<path d="M6100 4895c0 -3 0 -7 0 -10 l-7 -95 c-3 -52 -1 -187 2 -299 0 0 0 0 -1 -1 
l-1 -70 -6 0 -3 0 -1 250 c-1 171 -2 321 -2 385 l10 -80 9 -80 z" fill="rgb(101, 105, 137)"/>
<path d="M6094 4490c1 1 1 1 1 1 -3 112 -5 247 -2 299 l7 95 c-1 -81 -2 -191 -4 -297 
l-2 -98 z" fill="rgb(17, 27, 82)"/>
<path d="M2496 5295l150 0 157 0 c1 -40 1 -82 1 -125 1 -209 2 -406 1 -570 l0 0 0 0 
-53 0 -52 0 0 -50 0 -50 -105 0 -96 0 c-2 170 -3 465 -3 795 z" fill="rgb(91, 156, 151)"/>
<path d="M2815 6180l-7 -990 c-1 -232 -3 -451 -3 -630 0 13 0 26 0 40 1 164 0 361 -1 570 
0 43 0 85 -1 125 0 111 0 208 -1 293 0 76 0 143 0 202 0 81 0 147 0 200 
0 96 2 153 4 189 l-1 1 10 0 z" fill="rgb(203, 198, 215)"/>
<path d="M5810 5005c-2 -52 -4 -122 -4 -198 -1 -55 -2 -115 -2 -172 l-1 185 7 185 
z" fill="rgb(128, 134, 163)"/>
<path d="M2190 4800l-39 0 -39 0 3 -55 4 -55 -160 5 -160 5 0 90 0 221 c0 64 0 128 0 190 
l111 0 c60 -1 132 -1 158 -1 l48 0 2 123 c0 67 1 157 2 200 l0 77 35 0 35 0 
c0 -140 0 -303 0 -490 l0 -310 z" fill="rgb(91, 156, 151)"/>
<path d="M1448 4987c-1 44 -1 92 -1 148 0 168 6 301 17 405 2 18 5 38 8 60 l164 0 
162 0 c0 -126 1 -260 1 -399 0 -62 0 -126 0 -190 l0 -221 -74 0 c-41 0 -84 3 -95 6 
-16 5 -20 15 -20 55 l0 49 -39 0 -39 0 -7 50 -7 51 -36 -7 -34 -7 z" fill="rgb(62, 126, 128)"/>
<path d="M5731 4912l29 -17 29 -16 c-1 -48 -4 -79 -7 -79 -4 0 -18 7 -30 16 -17 11 -22 25 -22 55 
l1 41 z" fill="rgb(42, 52, 104)"/>
<path d="M5208 4830l1 11 c1 8 61 10 205 8 61 -2 117 -3 156 -6 33 -2 54 -4 56 -5 
l7 -8 -206 0 -209 -2 c-1 1 -2 2 -4 2 l-6 0 z" fill="rgb(66, 77, 129)"/>
<path d="M3275 4845l68 3 c28 1 61 0 84 -1 1 0 2 0 3 -1 l-77 -3 -78 2 z" fill="rgb(110, 123, 148)"/>
<path d="M3430 4846c-1 1 -2 1 -3 1 l8 4 c6 2 21 0 35 -6 l8 -5 -33 5 c-4 1 -9 1 -15 1 
z" fill="rgb(164, 168, 188)"/>
<path d="M5700 5290l40 -20 55 3 -2 -48 c-1 -27 -2 -134 -2 -237 0 -41 -1 -78 -2 -109 
l-29 16 -29 17 -16 -1 c-9 -1 -15 -11 -15 -27 0 -14 -4 -23 -10 -19 0 0 0 0 0 0 
l0 98 c0 54 -4 107 -9 118 l-9 20 -10 15 c-6 8 -14 13 -19 12 -4 -2 -15 -2 -24 0 
-10 1 -19 15 -23 35 -5 29 -12 36 -46 46 -35 10 -40 16 -40 41 0 26 -3 29 -42 34 
l57 4 c47 2 58 5 61 22 l5 20 13 0 c7 0 40 -13 74 -30 l22 -10 z" fill="rgb(33, 43, 92)"/>
<path d="M0 5390l0 4850 3900 0 0 -37 c0 -21 -3 -48 -6 -60 -6 -20 -13 -23 -55 -23 
l-49 0 0 -60 0 -60 49 0 48 0 6 -47 c3 -27 3 -52 0 -57 -3 -4 -27 -5 -54 -2 
l-49 7 0 -53 0 -53 153 0 152 0 5 -35 c3 -19 2 -87 -2 -150 l-6 -115 -45 -3 
c-46 -3 -46 -3 -52 -46 l-7 -44 -89 -7 c-61 -4 -94 -3 -104 5 -8 7 -48 10 -106 8 
l-94 -3 0 -60 c0 -33 -2 -79 -3 -102 l-2 -43 -45 0 -45 0 0 -52 0 -52 c-72 -1 -139 -2 -159 -3 
l-43 -3 -6 -45 -5 -45 -48 0 -49 0 0 -46 0 -46 -45 -6 -45 -5 0 -103 0 -104 -49 0 
-48 0 -7 -40 -6 -40 -51 0 -52 0 8 -52 7 -55 c-36 -7 -70 -13 -77 -13 -11 0 -17 -14 -22 -45 
l-6 -45 -48 0 -48 0 -6 -44 -7 -45 -47 -3 -46 -3 3 -52 4 -53 -56 0 -56 0 0 -45 
0 -46 -95 -6 -94 -6 -7 -43 -6 -42 -86 -12 c-48 -6 -90 -17 -94 -23 -4 -7 -8 -24 -8 -39 
0 -27 -2 -28 -51 -28 l-52 0 7 -49 c5 -36 3 -51 -8 -60 -9 -8 -28 -10 -51 -5 
-27 5 -40 3 -46 -7 -5 -8 -9 -31 -9 -51 l0 -38 -44 0 -44 0 -7 -144 -7 -144 -45 -7 
-45 -6 5 -57 c2 -31 -1 -121 -6 -198 l-10 -142 -39 -6 c-37 -6 -38 -7 -38 -50 
0 -43 0 -44 40 -50 40 -6 40 -7 40 -51 0 -24 4 -47 10 -50 5 -3 10 -24 10 -45 
0 -21 -4 -42 -10 -45 -5 -3 -10 -28 -10 -54 0 -40 4 -51 22 -62 l25 -15 
c-8 -18 -16 -35 -22 -50 -26 -60 -60 -150 -87 -229 -10 -29 -19 -57 -27 -81 
-10 -30 -20 -69 -31 -110 -21 -77 -41 -165 -54 -229 -5 -25 -10 -53 -15 -83 
-11 -63 -22 -134 -29 -192 -3 -22 -6 -42 -8 -60 -11 -104 -17 -237 -17 -405 
0 -56 0 -104 1 -148 1 -35 2 -67 4 -98 l-64 11 -57 11 -3 47 -3 47 -52 3 
-52 3 -7 45 -6 45 -52 -3 -51 -3 -3 53 -3 52 -48 0 -51 0 c-2 97 -2 165 -2 175 
0 17 0 86 1 155 0 69 2 136 3 150 2 14 1 90 -2 170 l-5 145 -47 3 -48 3 -1 -43 
c0 -24 0 -94 1 -157 l2 -114 -36 7 c-20 3 -43 6 -51 6 -11 0 -15 12 -15 50 
l0 50 -50 0 -51 0 -2 -100 -1 -100 -48 0 -48 0 0 -56 0 -55 -52 3 -53 3 3 50 
4 51 -207 2 -206 1 8 -97 c5 -59 4 -100 -2 -104 -5 -5 -28 -8 -52 -8 l-43 0 
z" fill="rgb(199, 193, 203)"/>
<path d="M7749 4900l-155 0 -156 0 c0 69 0 144 0 224 l1 385 156 -6 152 -6 1 -342 
c0 -90 0 -175 1 -255 z" fill="rgb(211, 101, 130)"/>
<path d="M2190 5600l-35 0 -35 0 0 -77 c-1 -43 -2 -133 -2 -200 l-2 -123 -48 0 c-26 0 -98 0 -158 1 
l-111 0 c0 139 -1 273 -1 399 0 34 0 67 0 99 l159 -2 158 -2 2 40 c1 22 2 46 2 53 
1 7 15 12 36 12 l36 0 c-1 -61 -1 -128 -1 -200 z" fill="rgb(74, 147, 157)"/>
<path d="M5697 5327l18 -32 148 -2 c38 -1 89 -2 142 -2 l-132 -13 -78 -5 -55 -3 -40 20 
-5 7 c-3 3 -5 8 -5 10 0 2 1 6 1 11 l6 9 z" fill="rgb(88, 93, 131)"/>
<path d="M3480 5286l105 2 107 0 c-2 -2 -3 -3 -5 -4 -7 -2 -57 -3 -110 -1 l-97 3 z" fill="rgb(104, 111, 132)"/>
<path d="M4172 6025c-31 113 -52 188 -52 193 0 6 3 13 8 14 l7 1 88 -1 c49 -1 93 -5 98 -8 
l9 -5 1 -7 4 -7 c1 -16 7 -49 17 -81 l21 -74 161 2 161 3 24 88 24 87 114 0 
c67 0 113 -4 113 -10 0 -5 -54 -204 -119 -442 -66 -238 -122 -445 -125 -459 
l-6 -26 -155 -7 c-85 -3 -162 -2 -171 3 -11 5 -57 150 -145 462 -29 102 -56 197 -77 274 
z" fill="rgb(254, 254, 254)"/>
<path d="M6461 5285l104 3 c58 1 105 4 105 7 0 3 2 5 6 4 l5 0 -9 -10 c-5 -6 -52 -9 -110 -7 
l-101 3 z" fill="rgb(113, 116, 151)"/>
<path d="M2495 5588l87 6 c50 4 95 7 99 6 5 0 34 -3 64 -6 l57 -6 c1 -85 1 -182 1 -293 
l-157 0 -150 0 c0 20 0 40 0 60 l-1 233 z" fill="rgb(74, 147, 157)"/>
<path d="M3992 6220l8 -38 c3 -10 15 -68 34 -152 18 -81 41 -186 65 -297 50 -226 91 -418 91 -427 
0 -14 -17 -16 -120 -16 -85 0 -120 3 -120 12 0 6 -25 160 -56 342 -31 182 -58 338 -62 346 
-3 8 -29 -127 -58 -300 -28 -167 -45 -288 -47 -335 l-15 -33 c-5 -14 -13 -28 -20 -34 
l-107 0 -105 -2 -9 9 c-4 6 -32 163 -62 350 -29 187 -56 340 -59 340 -3 0 -31 -151 -63 -335 
-32 -184 -61 -341 -66 -348 -6 -9 -37 -12 -122 -10 l-114 3 101 464 c56 255 107 468 113 472 
6 5 69 9 140 9 72 0 132 -4 135 -9 3 -4 28 -129 55 -276 28 -147 52 -269 55 -272 
2 -2 9 19 15 49 6 29 29 152 51 273 23 120 45 222 50 225 6 3 71 6 145 5 
74 -1 137 -5 141 -8 l6 -7 z" fill="rgb(254, 254, 254)"/>
<path d="M5591 5330l-5 -20 c-3 -17 -14 -20 -61 -22 l-57 -4 c-1 0 -2 0 -3 0 -25 3 -174 7 -332 9 
l-288 2 -2 100 -2 100 128 -2 c70 -2 131 0 134 4 4 3 7 72 7 152 l-4 146 
c2 21 4 112 4 218 l0 214 94 7 c51 3 101 3 110 0 14 -5 16 -44 16 -367 l0 -361 
0 -9 c0 -3 37 -4 85 -2 6 0 12 1 19 1 57 4 115 4 130 0 25 -6 26 -9 27 -86 
l0 -80 z" fill="rgb(254, 254, 254)"/>
<path d="M6005 6239l120 -7 c66 -2 129 0 140 3 0 0 0 0 0 0 11 3 31 2 45 -3 l24 -9 
0 -81 0 -81 -5 -5 c-2 -3 -49 -4 -116 -5 -32 -1 -68 -1 -107 -1 l-159 0 
-2 0 -55 0 -10 -26 c-6 -14 -10 -136 -10 -273 l0 -248 61 -7 c34 -3 140 -6 235 -6 
l59 0 115 0 0 -100 0 -100 -165 0 c-48 0 -110 0 -170 1 -53 0 -104 1 -142 2 
l-148 2 -18 32 -9 18 -28 50 -2 368 c0 131 -1 216 0 272 l1 35 2 35 c3 33 7 42 15 53 
8 10 22 23 36 34 6 5 12 10 18 13 29 17 65 22 210 30 l65 4 z" fill="rgb(254, 254, 254)"/>
<path d="M6680 5671l0 -186 1 -186 -5 0 c-4 1 -6 -1 -6 -4 0 -3 -47 -6 -105 -7 l-104 -3 
-1 473 0 472 75 0 75 4 c36 -2 63 -4 65 -4 3 0 5 -80 5 -179 l0 -178 35 -7 
c19 -3 87 -6 150 -6 l115 0 13 0 c8 0 17 3 20 7 4 3 7 87 7 185 l0 81 0 97 104 0 
104 0 8 -27 c1 -3 2 -13 3 -28 l5 -425 -1 -425 -7 -17 c-7 -16 -22 -18 -112 -18 
l-104 0 -2 193 -3 192 -168 -2 -167 -2 z" fill="rgb(254, 254, 254)"/>
<path d="M7243 5325l1 425 -5 425 c3 -66 6 -236 5 -425 l-1 -425 z" fill="rgb(7, 13, 34)"/>
<path d="M5106 5795l4 -146 c0 -80 -3 -149 -7 -152 -3 -4 -64 -6 -134 -4 l-128 2 128 5 
129 5 1 139 c1 77 4 143 7 147 0 0 0 2 0 4 z" fill="rgb(101, 105, 137)"/>
<path d="M5415 5495c-48 -2 -85 -1 -85 2 l0 9 43 -6 42 -5 z" fill="rgb(104, 111, 132)"/>
<path d="M6225 5490l-59 0 c-95 0 -201 3 -235 6 l-61 7 0 248 c0 137 4 259 10 273 
l10 26 55 0 -28 -25 -27 -26 0 -241 c0 -16 0 -32 0 -48 1 -110 3 -196 5 -198 
3 -3 78 -8 167 -11 l163 -11 z" fill="rgb(69, 70, 106)"/>
<path d="M4491 5666c-28 94 -51 179 -51 188 0 14 14 16 100 16 89 0 100 -2 100 -17 
0 -10 -18 -87 -40 -170 -21 -84 -43 -160 -49 -170 -7 -14 -21 20 -60 153 
z" fill="rgb(19, 26, 64)"/>
<path d="M7747 5497l-152 6 -156 6 2 591 154 0 151 0 1 -603 z" fill="rgb(200, 90, 139)"/>
<path d="M2495 5795l90 7 c60 5 99 4 107 -2 7 -5 33 -10 60 -10 l50 0 c0 -59 0 -126 0 -202 
l-57 6 c-30 3 -59 6 -64 6 -4 1 -49 -2 -99 -6 l-87 -6 0 207 z" fill="rgb(73, 142, 171)"/>
<path d="M1472 5600c7 58 18 129 29 192 l44 -4 c25 -3 48 -2 51 3 2 5 50 7 104 6 l97 -2 
c0 -31 1 -63 1 -96 0 -32 0 -65 0 -99 l-162 0 -164 0 z" fill="rgb(54, 122, 135)"/>
<path d="M5890 5710c0 16 0 32 0 48 l0 241 27 26 28 25 2 0 6 -7 c2 -1 10 -2 22 -3 
l113 -8 112 -2 0 -54 c0 -40 4 -55 16 -60 9 -3 31 -6 50 -6 l35 0 -5 -77 
c-2 -43 -5 -90 -5 -105 -1 -26 -2 -26 -95 -33 l-94 -7 -6 -39 c-6 -39 -7 -39 -52 -39 
-44 0 -45 1 -51 35 -4 26 -14 40 -34 50 -15 8 -37 15 -49 15 l-20 0 z" fill="rgb(33, 43, 92)"/>
<path d="M2191 5800l-36 0 c-21 0 -35 -5 -36 -12 0 -7 -1 -31 -2 -53 l-2 -40 -158 2 
-159 2 c0 33 -1 65 -1 96 0 32 0 64 0 94 l160 3 158 3 2 35 c1 19 2 43 2 53 
1 13 10 17 36 17 l36 0 c0 -60 0 -126 0 -200 z" fill="rgb(68, 142, 165)"/>
<path d="M8056 5925c1 83 1 153 1 209 l27 -18 c25 -16 50 -18 197 -18 l169 0 0 -301 
-190 0 -190 -1 -1 -45 c-1 -37 -2 -41 -8 -21 l-5 25 c0 61 0 118 0 170 z" fill="rgb(237, 74, 126)"/>
<path d="M1570 6104l27 -10 c17 -6 38 -7 51 -2 12 4 51 9 87 11 l61 2 c0 -67 1 -139 1 -216 
0 -30 0 -62 0 -94 l-97 2 c-54 1 -102 -1 -104 -6 -3 -5 -26 -6 -51 -3 l-44 4 
c5 30 10 58 15 83 13 64 33 152 54 229 z" fill="rgb(49, 115, 142)"/>
<path d="M2495 6003l150 -6 157 -7 c0 -53 0 -119 0 -200 l-50 0 c-27 0 -53 5 -60 10 
-8 6 -47 7 -107 2 l-90 -7 0 208 z" fill="rgb(65, 139, 177)"/>
<path d="M7020 6133l0 -81 c0 -98 -3 -182 -7 -185 -3 -4 -12 -7 -20 -7 l-13 0 14 8 
c12 5 15 33 15 131 1 68 3 127 6 129 l5 5 z" fill="rgb(97, 99, 116)"/>
<path d="M2191 6000l-36 0 c-26 0 -35 -4 -36 -17 0 -10 -1 -34 -2 -53 l-2 -35 -158 -3 
-160 -3 c0 77 -1 149 -1 216 0 72 -1 137 -1 195 -1 84 -2 151 -2 200 l52 2 
50 3 3 -52 3 -51 42 -4 c23 -1 72 -2 109 0 l67 4 0 93 c0 67 6 110 21 156 
19 58 30 72 113 149 72 67 125 103 243 170 83 47 190 109 238 139 48 29 134 80 191 112 
58 33 158 89 223 127 61 35 138 81 178 105 2 2 4 3 7 5 12 8 31 18 52 31 
l20 -28 18 -24 c-310 -180 -597 -347 -699 -408 -17 -10 -33 -20 -48 -29 
-47 -28 -85 -51 -116 -71 -73 -47 -111 -78 -155 -120 -47 -45 -104 -113 -134 -160 
-28 -45 -58 -107 -66 -137 -9 -31 -12 -130 -14 -512 z" fill="rgb(65, 135, 180)"/>
<path d="M8054 6375c0 4 0 7 0 10 l4 -120 c0 -16 -1 -62 -1 -131 0 -56 0 -126 -1 -209 
l-5 206 c-1 96 1 196 3 244 z" fill="rgb(164, 53, 103)"/>
<path d="M2564 6469c15 25 35 51 60 81 6 8 12 15 18 21 54 64 77 78 267 189 3 1 5 3 7 4 
l6 -10 c5 -7 89 3 267 33 144 24 281 45 306 48 41 5 46 3 59 -22 l14 -30 
c0 0 0 0 0 0 -597 -343 -623 -359 -675 -420 -30 -34 -63 -84 -74 -110 -6 -15 -10 -28 -13 -74 
-2 -36 -4 -93 -4 -189 l-157 7 -150 6 0 312 29 75 c11 28 23 53 40 79 z" fill="rgb(60, 131, 182)"/>
<path d="M3645 6674c31 -33 60 -64 66 -69 6 -5 55 -48 108 -95 53 -47 129 -113 169 -147 
39 -35 87 -74 105 -88 19 -14 39 -25 45 -25 7 0 -1 9 -18 21 -25 17 -29 26 -23 47 
3 15 10 37 14 50 7 17 16 22 43 22 19 0 38 5 41 10 3 6 29 10 56 10 l51 0 -3 -44 
c-2 -29 3 -53 15 -71 10 -15 15 -29 12 -32 -3 -4 -1 -12 5 -19 6 -8 8 -21 5 -30 
-1 -2 -1 -5 -1 -9 l-4 7 -1 7 0 5 c0 3 -3 7 -7 8 -5 2 -48 2 -98 2 l-90 -1 
-7 -1 c-5 -1 -8 -8 -8 -14 0 -5 21 -80 52 -193 l-40 -17 c-21 -10 -44 -18 -52 -18 
-7 0 -19 8 -26 18 -7 9 -14 18 -14 20 0 1 -1 2 -3 2 l-3 0 c-19 84 -31 142 -34 152 
l-8 38 13 31 c7 18 11 38 8 46 -3 8 -26 17 -54 20 -46 5 -48 7 -54 44 l-7 39 -48 0 
-49 0 -3 48 -3 47 -53 -3 -53 -4 3 59 3 58 -42 3 c-24 1 -48 7 -55 12 -7 6 -11 28 -9 51 
2 26 -2 45 -10 50 -8 4 -10 11 -6 15 4 5 34 -21 67 -56 2 -2 3 -4 5 -6 z" fill="rgb(19, 26, 64)"/>
<path d="M5661 6105l-2 -35 -1 -35 c1 31 2 53 3 70 z" fill="rgb(149, 152, 172)"/>
<path d="M5975 6040c-12 1 -20 2 -22 3 l-6 7 159 0 c39 0 75 0 107 1 l-4 -5 c-2 -3 -59 -6 -127 -7 
-43 -1 -83 0 -107 1 z" fill="rgb(84, 97, 128)"/>
<path d="M6334 6061l0 81 0 81 0 -81 0 -81 z" fill="rgb(174, 178, 191)"/>
<path d="M1628 6295l85 2 82 3 c0 -58 1 -123 1 -195 l-61 -2 c-36 -2 -75 -7 -87 -11 
-13 -5 -34 -4 -51 2 l-27 10 c11 41 21 80 31 110 8 24 17 52 27 81 z" fill="rgb(50, 107, 154)"/>
<path d="M6880 7390l0 4 c0 3 -2 6 -5 6 -3 0 1 12 8 27 l14 26 31 -16 c17 -9 49 -28 72 -42 
22 -14 73 -42 114 -63 l73 -38 52 22 51 23 0 68 c0 37 4 74 9 82 6 10 20 12 49 8 
28 -5 43 -3 51 7 9 11 8 23 -4 54 l-15 40 12 11 c7 6 30 11 53 11 23 0 46 -5 53 -12 
8 -8 58 -12 148 -12 116 -1 138 1 147 15 l10 16 c18 -19 35 -37 49 -53 74 -82 194 -231 266 -330 
15 -21 31 -44 47 -68 62 -90 129 -194 164 -255 32 -57 80 -151 122 -239 
l-1 -584 -169 0 c-147 0 -172 2 -197 18 l-27 18 c0 69 1 115 1 131 l-4 120 
c1 4 1 8 1 11 2 24 2 46 -1 69 -3 18 -7 38 -14 59 -10 38 -36 96 -56 128 
-20 33 -73 96 -118 141 -79 80 -96 90 -509 325 -123 69 -297 169 -477 272 
z" fill="rgb(230, 62, 135)"/>
<path d="M7746 6100l-151 0 -154 0 0 103 -19 53 -3 8 c-14 39 -30 65 -63 101 l28 23 
c24 18 28 27 24 62 l-4 40 39 0 c26 0 45 7 58 20 15 15 34 20 84 22 l61 -1 
4 -4 c0 -4 2 -7 3 -7 1 0 2 0 2 0 2 -1 4 -2 6 -2 l1 -6 c24 -30 37 -54 52 -92 
l31 -75 1 -245 z" fill="rgb(197, 81, 145)"/>
<path d="M2815 6180l-10 0 1 -1 c3 46 7 59 13 74 11 26 44 76 74 110 52 61 78 77 675 420 
0 0 0 0 0 0 206 118 445 256 645 371 132 76 246 142 322 186 122 71 242 138 322 181 
44 23 76 39 89 44 43 17 95 27 145 30 52 3 102 0 144 -11 23 -5 62 -22 144 -65 
l-3 -6 -2 -5 c-57 29 -92 46 -108 51 -47 14 -95 21 -155 21 -70 0 -101 -5 -161 -28 
-45 -16 -312 -164 -657 -364 -321 -186 -751 -434 -956 -552 -270 -155 -385 -227 -419 -261 
-26 -26 -60 -73 -75 -104 l-28 -56 0 -35 z" fill="rgb(199, 193, 203)"/>
<path d="M4135 6233l90 1 c50 0 93 0 98 -2 4 -1 7 -5 7 -8 l0 -5 -9 5 c-5 3 -49 7 -98 8 
l-88 1 z" fill="rgb(26, 35, 78)"/>
<path d="M6115 6245l34 3 c19 2 52 0 75 -5 l41 -8 c-11 -3 -74 -5 -140 -3 l-120 7 
110 6 z" fill="rgb(83, 85, 112)"/>
<path d="M6672 6775c-219 123 -516 292 -755 429 -262 150 -439 249 -543 304 l2 5 3 6 
c20 -11 43 -23 68 -37 114 -62 286 -160 553 -313 135 -76 276 -157 410 -233 
249 -141 471 -267 573 -323 30 -18 58 -33 83 -47 171 -97 216 -127 265 -176 
9 -9 17 -17 25 -25 33 -36 49 -62 63 -101 l3 -8 -8 12 -31 47 c-24 37 -61 77 -98 105 
-33 25 -223 136 -422 248 -43 23 -96 53 -156 87 -12 6 -23 13 -35 20 z" fill="rgb(212, 188, 202)"/>
<path d="M1737 6574c13 29 29 62 46 96 l8 -90 c0 -9 1 -37 2 -80 0 -49 1 -116 2 -200 
l-82 -3 -85 -2 c27 79 61 169 87 229 6 15 14 32 22 50 z" fill="rgb(45, 102, 158)"/>
<path d="M7655 6520c0 0 -1 0 -2 0 -1 0 -3 3 -3 7 l-4 4 c3 -4 6 -8 9 -11 zm7 -8 l-1 6 c-2 0 -4 1 -6 2 3 -3 5 -5 7 -8 zm-16 19 l-61 1 c-50 -2 -69 -7 -84 -22 -13 -13 -32 -20 -58 -20 l-39 0 4 -40 
c4 -35 0 -44 -24 -62 l-28 -23 c-8 8 -16 16 -25 25 -49 49 -94 79 -265 176 
l19 25 c17 20 27 24 68 21 l47 -3 0 50 0 51 36 0 c32 0 39 5 55 38 l20 38 
194 -111 89 -90 c21 -21 38 -39 52 -54 z" fill="rgb(183, 81, 153)"/>
<path d="M8054 6465c3 -23 3 -45 1 -69 0 -3 0 -7 -1 -11 0 -3 0 -6 0 -10 l-2 45 2 45 
z" fill="rgb(107, 42, 83)"/>
<path d="M1793 6500c-1 43 -2 71 -2 80 l-8 90 c33 66 69 135 100 191 58 102 157 257 220 345 
43 60 111 147 175 224 l10 -13 c10 -11 51 -14 209 -13 l198 1 3 48 c3 43 5 47 30 50 
15 1 146 2 292 2 l265 0 20 -25 21 -27 c-40 -24 -117 -70 -178 -105 -65 -38 -165 -94 -223 -127 
-57 -32 -143 -83 -191 -112 -48 -30 -155 -92 -238 -139 -118 -67 -171 -103 -243 -170 
-83 -77 -94 -91 -113 -149 -15 -46 -21 -89 -21 -156 l0 -93 -67 -4 c-37 -2 -86 -1 -109 0 
l-42 4 -3 51 -3 52 -50 -3 -52 -2 z" fill="rgb(59, 129, 187)"/>
<path d="M2560 6929c31 20 69 43 116 71 l10 -39 c8 -31 7 -48 -5 -83 -9 -23 -24 -51 -34 -61 
-16 -17 -18 -33 -14 -130 l9 -116 c-6 -6 -12 -13 -18 -21 -25 -30 -45 -56 -60 -81 
l-5 181 c3 96 3 196 0 223 -2 26 -3 47 -2 47 2 0 3 3 3 6 l0 3 z" fill="rgb(7, 13, 34)"/>
<path d="M2902 8503c4 1 8 2 13 3 72 15 75 17 81 49 5 27 12 34 36 39 17 3 39 6 49 6 
16 0 19 -8 19 -49 l0 -50 93 -3 c50 -2 97 -1 102 2 6 3 51 3 101 2 l91 -4 12 -37 
13 -43 c-73 -37 -150 -78 -211 -113 -136 -78 -253 -155 -362 -237 -36 -27 -79 -62 -122 -98 
-20 -17 -40 -33 -60 -50 -45 -38 -87 -76 -118 -106 -77 -72 -203 -202 -280 -290 
-25 -27 -52 -60 -81 -94 -64 -77 -132 -164 -175 -224 -63 -88 -162 -243 -220 -345 
-31 -56 -67 -125 -100 -191 -17 -34 -33 -67 -46 -96 l-25 15 c-18 11 -22 22 -22 62 
0 26 5 51 10 54 6 3 10 24 10 45 0 21 -5 42 -10 45 -6 3 -10 26 -10 50 0 44 0 45 -40 51 
-40 6 -40 7 -40 50 0 43 1 44 38 50 l39 6 10 142 c5 77 8 167 6 198 l-5 57 45 6 
45 7 7 144 7 144 44 0 44 0 0 38 c0 20 4 43 9 51 6 10 19 12 46 7 23 -5 42 -3 51 5 
11 9 13 24 8 60 l-7 49 52 0 c49 0 51 1 51 28 0 15 4 32 8 39 4 6 46 17 94 23 
l86 12 6 42 7 43 94 6 95 6 0 46 0 45 56 0 56 0 -4 53 -3 52 46 3 47 3 7 45 
6 44 48 0 48 0 6 45 c5 31 11 45 22 45 7 0 41 6 77 13 z" fill="rgb(164, 168, 188)"/>
<path d="M7311 6786l-20 -38 c-16 -33 -23 -38 -55 -38 l-36 0 0 -51 0 -50 -47 3 c-41 3 -51 -1 -68 -21 
l-19 -25 c-25 14 -53 29 -83 47 -102 56 -324 182 -573 323 l0 17 c0 9 9 26 20 37 
16 16 33 20 89 20 41 0 73 -5 77 -11 4 -8 35 -9 95 -5 79 5 92 9 117 34 
l29 29 474 -271 z" fill="rgb(161, 85, 163)"/>
<path d="M3985 7384l19 -43 19 -41 89 0 c48 0 88 3 88 8 0 4 20 6 44 4 35 -3 45 -8 50 -25 
3 -12 6 -29 6 -39 0 -11 -15 -20 -51 -28 -48 -12 -50 -14 -44 -39 l8 -27 
c-200 -115 -439 -253 -645 -371 l-14 30 c-13 25 -18 27 -59 22 -25 -3 -162 -24 -306 -48 
-178 -30 -262 -40 -267 -33 l-6 10 c125 73 476 276 791 459 88 51 183 106 278 161 
z" fill="rgb(62, 119, 181)"/>
<path d="M6837 7057l-29 -29 c-25 -25 -38 -29 -117 -34 -60 -4 -91 -3 -95 5 -4 6 -36 11 -77 11 
-56 0 -73 -4 -89 -20 -11 -11 -20 -28 -20 -37 l0 -17 c-134 76 -275 157 -410 233 
-267 153 -439 251 -553 313 l15 21 c13 17 37 19 274 25 l260 9 c201 -114 503 -286 784 -447 
l57 -33 z" fill="rgb(132, 89, 176)"/>
<path d="M8495 7995c0 11 -1 22 -2 32 l-6 73 -42 0 -42 0 -6 64 c-3 35 -4 80 0 99 
4 29 2 35 -16 41 -12 3 -34 6 -51 6 -29 0 -30 2 -30 45 l0 45 -50 0 -50 0 0 50 
0 50 -56 0 -57 0 5 50 5 50 -48 6 -49 7 0 45 0 45 -49 -7 c-27 -4 -52 -3 -54 1 
-3 5 -72 6 -154 3 l-148 -5 -3 53 -3 52 -44 0 -43 0 -7 106 -8 106 -86 -8 
c-31 -4 -110 -6 -201 -6 l0 33 c0 19 -4 39 -8 46 -4 6 -28 13 -52 15 l-45 3 -3 48 
-3 47 -44 0 c-24 0 -47 5 -50 10 -3 6 -26 10 -50 10 -43 0 -43 0 -50 40 
-7 40 -7 40 -51 40 l-44 0 0 50 0 50 45 0 45 0 0 50 0 50 -50 0 -50 0 0 50 
0 50 49 0 50 0 3 -42 3 -43 98 -3 97 -3 0 51 0 51 55 -6 54 -7 -2 158 -2 159 53 -3 
52 -3 0 55 0 56 -49 0 -48 0 -9 48 c-5 26 -8 77 -6 115 l2 67 3050 0 0 -3040 
-59 0 -60 0 -3 -43 -3 -42 -51 -3 -52 -3 -6 45 -7 45 -52 3 -52 3 -3 41 
c-3 40 -4 42 -45 47 -22 3 -45 3 -50 0 -5 -3 -6 -48 -2 -105 l7 -99 -53 3 
-54 3 0 55 0 55 -46 3 c-43 3 -47 5 -53 34 -3 17 -6 57 -6 89 l0 58 -44 6 
-45 7 -3 47 -3 46 -55 0 c-30 0 -96 1 -146 3 l-92 2 -6 44 -7 45 -47 3 -47 3 -3 47 
-3 47 -45 7 -44 6 0 49 0 49 -50 0 -50 0 0 -50 0 -50 -50 0 c-45 0 -50 2 -50 23 
0 12 -3 32 -6 45 -5 18 -13 22 -50 22 l-44 0 0 55 0 55 -49 0 -50 0 -3 48 
-3 47 -50 0 -50 0 z" fill="rgb(233, 185, 191)"/>
<path d="M4241 7532l272 -16 c241 -7 271 -7 285 8 l11 11 c9 -1 16 -2 19 -2 l29 -12 
c-80 -43 -200 -110 -322 -181 -76 -44 -190 -110 -322 -186 l-8 27 c-6 25 -4 27 44 39 
36 8 51 17 51 28 0 10 -3 27 -6 39 -5 17 -15 22 -50 25 -24 2 -44 0 -44 -4 
0 -5 -40 -8 -88 -8 l-89 0 -19 41 -19 43 c87 50 174 101 256 148 z" fill="rgb(64, 107, 184)"/>
<path d="M8165 7176c-16 24 -32 47 -47 68 -72 99 -192 248 -266 330 -14 16 -31 34 -49 53 
-73 76 -170 172 -240 236 -2 2 -4 3 -5 5 -43 39 -90 79 -138 118 -38 31 -77 61 -114 90 
-26 19 -52 38 -77 55 -32 23 -72 49 -113 76 -43 27 -88 55 -130 80 l8 18 
c3 9 24 18 50 21 34 5 46 11 50 28 3 11 6 28 6 37 0 12 -12 18 -45 22 -26 2 -47 6 -49 8 
-2 2 -6 20 -10 40 l-6 36 145 6 c25 2 48 2 67 3 53 1 84 -1 90 -6 7 -5 31 -10 54 -10 
l43 0 7 -45 6 -45 43 0 c30 0 45 -5 49 -16 3 -9 6 -31 6 -50 0 -34 0 -34 46 -34 
l46 0 5 -44 5 -43 74 -7 c41 -3 83 -9 94 -12 14 -4 20 -15 20 -34 0 -16 3 -35 6 -44 
4 -11 19 -16 50 -16 l43 0 7 -50 7 -50 48 0 49 0 0 -50 0 -50 44 0 c37 0 45 -4 50 -22 
1 -7 3 -32 4 -68 1 -35 2 -80 2 -127 0 -104 -4 -174 -10 -178 -5 -3 -10 -21 -10 -39 
0 -20 8 -40 20 -51 17 -15 20 -26 14 -61 l-6 -43 48 -3 49 -3 -1 -54 c-2 -41 -6 -57 -20 -64 
l-19 -11 z" fill="rgb(219, 147, 160)"/>
<path d="M6897 7453l-10 8 c-8 5 -5 14 7 28 11 12 29 21 42 21 12 0 29 3 38 6 9 3 16 16 16 28 
0 11 3 32 7 44 6 24 7 24 95 17 78 -6 91 -5 109 11 20 18 23 18 71 1 28 -9 63 -17 79 -18 
l29 -1 15 -40 c12 -31 13 -43 4 -54 -8 -10 -23 -12 -51 -7 -29 4 -43 2 -49 -8 
-5 -8 -9 -45 -9 -82 l0 -68 -51 -23 -52 -22 -73 38 c-41 21 -92 49 -114 63 
-23 14 -55 33 -72 42 l-31 16 z" fill="rgb(218, 61, 145)"/>
<path d="M6300 7723l0 3 c0 2 -2 4 -5 4 -3 0 -5 2 -5 5 0 3 7 17 16 30 13 20 19 22 34 12 
15 -9 23 -8 38 6 12 11 35 17 64 17 27 0 50 6 57 14 7 8 27 14 49 13 33 -2 37 1 46 31 
8 30 12 32 51 32 31 0 47 6 61 23 l19 22 c27 -16 50 -30 65 -40 l70 -45 320 5 
c176 3 334 5 350 5 l33 3 c70 -64 167 -160 240 -236 l-10 -16 c-9 -14 -31 -16 -147 -15 
-90 0 -140 4 -148 12 -7 7 -30 12 -53 12 -23 0 -46 -5 -53 -11 l-12 -11 
-29 1 c-16 1 -51 9 -79 18 -48 17 -51 17 -71 -1 -18 -16 -31 -17 -109 -11 
-88 7 -89 7 -95 -17 -4 -12 -7 -33 -7 -44 0 -12 -7 -25 -16 -28 -9 -3 -26 -6 -38 -6 
-13 0 -31 -9 -42 -21 -12 -14 -15 -23 -7 -28 l10 -8 -14 -26 c-7 -15 -11 -27 -8 -27 
3 0 5 -3 5 -6 l0 -4 c-165 94 -333 191 -470 270 -36 21 -72 42 -110 63 z" fill="rgb(202, 66, 148)"/>
<path d="M3670 7579l0 6 c0 3 2 5 5 5 7 0 6 5 -1 24 -3 9 -12 16 -20 16 -8 0 -68 -29 -134 -65 
-43 -23 -95 -52 -135 -76 -21 -13 -40 -23 -52 -31 -3 -2 -5 -3 -7 -5 l-21 27 
-20 25 -265 0 c-146 0 -277 -1 -292 -2 -25 -3 -27 -7 -30 -50 l-3 -48 -198 -1 
c-158 -1 -199 2 -209 13 l-10 13 c29 34 56 67 81 94 77 88 203 218 280 290 
31 30 73 68 118 106 l17 -19 c11 -12 24 -31 30 -44 11 -22 15 -22 164 -19 
84 1 212 5 285 10 l132 7 80 50 79 60 c9 0 15 0 16 0 5 0 47 22 109 56 l16 -31 
16 -30 254 0 c147 0 276 5 305 11 36 8 55 8 62 1 l11 -11 c-184 -106 -423 -243 -653 -376 
-3 -2 -7 -4 -10 -6 z" fill="rgb(64, 120, 191)"/>
<path d="M3423 7437l-18 24 -20 28 c40 24 92 53 135 76 66 36 126 65 134 65 8 0 17 -7 20 -16 
7 -19 8 -24 1 -24 -3 0 -5 -2 -5 -5 l0 -6 c-82 -47 -165 -95 -247 -142 z" fill="rgb(74, 131, 195)"/>
<path d="M5996 7537l-260 -9 c-237 -6 -261 -8 -274 -25 l-15 -21 c-25 14 -48 26 -68 37 
-82 43 -121 60 -144 65 -42 11 -92 14 -144 11 -50 -3 -102 -13 -145 -30 
-13 -5 -45 -21 -89 -44 l-29 12 c-3 0 -10 1 -19 2 -44 3 -155 6 -276 8 l-268 3 
c144 84 271 157 351 204 119 69 200 116 258 147 l17 -22 c15 -18 31 -20 168 -22 
83 -2 197 0 254 5 l104 10 c8 -4 16 -9 24 -14 63 -38 227 -132 364 -209 
40 -23 107 -60 191 -108 z" fill="rgb(83, 81, 164)"/>
<path d="M4265 7546l268 -3 c121 -2 232 -5 276 -8 l-11 -11 c-14 -15 -44 -15 -285 -8 
l-272 16 c8 5 16 9 24 14 z" fill="rgb(72, 78, 161)"/>
<path d="M8395 7593l-45 6 c-44 6 -45 7 -48 47 l-3 42 -50 6 -49 7 0 54 0 55 -50 0 
-52 0 c-1 36 -3 61 -4 68 -5 18 -13 22 -50 22 l-44 0 0 50 0 50 -49 0 -48 0 -7 50 
-7 50 -43 0 c-31 0 -46 5 -50 16 -3 9 -6 28 -6 44 0 19 -6 30 -20 34 -11 3 -53 9 -94 12 
l-74 7 -5 43 -5 44 -46 0 c-46 0 -46 0 -46 34 0 19 -3 41 -6 50 -4 11 -19 16 -49 16 
l-43 0 -6 45 -7 45 -43 0 c-23 0 -47 5 -54 10 -6 5 -37 7 -90 6 l-7 42 c-6 38 -9 42 -36 42 
-16 0 -37 3 -47 8 -14 6 -17 16 -14 55 l4 47 -56 0 -56 0 0 44 c0 31 -5 46 -16 50 
-9 3 -51 6 -95 6 l-79 0 -2 33 c-1 17 -1 41 -1 52 0 4 0 10 0 17 0 15 -1 34 -3 51 
l-3 48 262 -3 c49 -1 100 -1 147 0 91 0 170 2 201 6 l86 8 8 -106 7 -106 43 0 
44 0 3 -52 3 -53 148 5 c82 3 151 2 154 -3 2 -4 27 -5 54 -1 l49 7 0 -45 
0 -45 49 -7 48 -6 -5 -50 -5 -50 57 0 56 0 0 -50 0 -50 50 0 50 0 0 -45 
c0 -43 1 -45 30 -45 17 0 39 -3 51 -6 18 -6 20 -12 16 -41 -4 -19 -3 -64 0 -99 
l6 -64 42 0 42 0 6 -73 c1 -10 2 -21 2 -32 1 -29 1 -54 -1 -63 -5 -18 -13 -22 -49 -22 
-43 0 -43 1 -50 40 -7 39 -7 40 -50 40 -43 0 -43 -1 -48 -37 -2 -21 -3 -65 -2 -98 
0 -33 2 -81 3 -107 l2 -48 40 0 c22 0 45 -4 51 -9 8 -6 9 -36 4 -94 0 -1 0 -3 0 -4 
z" fill="rgb(228, 169, 180)"/>
<path d="M6059 7863l25 25 c23 25 32 27 103 27 43 0 105 -4 139 -9 l60 -8 12 41 c12 39 15 41 52 41 
28 0 43 -6 53 -21 8 -11 29 -22 46 -25 24 -3 37 2 59 24 l28 29 c18 -10 36 -21 54 -31 
12 -7 24 -14 35 -21 l-19 -22 c-14 -17 -30 -23 -61 -23 -39 0 -43 -2 -51 -32 
-9 -30 -13 -33 -46 -31 -22 1 -42 -5 -49 -13 -7 -8 -30 -14 -57 -14 -29 0 -52 -6 -64 -17 
-15 -14 -23 -15 -38 -6 -15 10 -21 8 -34 -12 -9 -13 -16 -27 -16 -30 0 -3 2 -5 5 -5 
3 0 5 -2 5 -4 l0 -3 c-79 46 -161 93 -241 140 z" fill="rgb(182, 75, 163)"/>
<path d="M2817 7970l359 -2 c171 -2 321 -3 368 -3 l-79 -60 -80 -50 -132 -7 c-73 -5 -201 -9 -285 -10 
-149 -3 -153 -3 -164 19 -6 13 -19 32 -30 44 l-17 19 c20 17 40 33 60 50 
z" fill="rgb(64, 107, 184)"/>
<path d="M5417 7868l-104 -10 c-57 -5 -171 -7 -254 -5 -137 2 -153 4 -168 22 l-17 22 
c69 37 105 52 132 58 35 8 87 15 114 15 28 0 85 -11 129 -24 44 -13 104 -41 168 -78 
z" fill="rgb(59, 68, 150)"/>
<path d="M7563 7863l-33 -3 c-16 0 -174 -2 -350 -5 l-320 -5 -70 45 c-15 10 -38 24 -65 40 
-11 7 -23 14 -35 21 l362 14 c196 3 360 8 364 12 l4 4 c48 -39 95 -79 138 -118 
1 -2 3 -3 5 -5 z" fill="rgb(144, 67, 136)"/>
<path d="M5867 7974l20 19 c12 10 36 17 60 17 24 0 46 -6 53 -15 7 -8 27 -15 45 -15 
18 0 39 7 46 16 11 14 27 15 94 10 44 -4 107 -4 138 0 57 7 59 8 82 53 l25 47 
c17 -10 33 -19 48 -28 46 -26 81 -46 102 -58 18 -10 37 -21 56 -33 l-28 -29 
c-22 -22 -35 -27 -59 -24 -17 3 -38 14 -46 25 -10 15 -25 21 -53 21 -37 0 -40 -2 -52 -41 
l-12 -41 -60 8 c-34 5 -96 9 -139 9 -71 0 -80 -2 -103 -27 l-25 -25 c-66 38 -131 76 -192 111 
z" fill="rgb(164, 80, 165)"/>
<path d="M3512 8418c60 31 117 58 159 77 93 41 234 98 314 125 80 28 228 68 330 90 
23 5 48 10 75 15 94 18 205 36 275 45 76 9 208 19 317 23 l-72 -48 c-31 -20 -133 -82 -250 -151 
-40 -23 -82 -48 -123 -71 -12 -8 -24 -15 -37 -22 -150 -87 -296 -172 -332 -193 
-40 -24 -190 -110 -333 -193 -61 -35 -119 -68 -166 -94 -62 -34 -104 -56 -109 -56 
-1 0 -7 0 -16 0 -47 0 -197 1 -368 3 l-359 2 c43 36 86 71 122 98 109 82 226 159 362 237 
61 35 138 76 211 113 z" fill="rgb(59, 68, 150)"/>
<path d="M4333 7961l-11 11 c-7 7 -26 7 -62 -1 -29 -6 -158 -11 -305 -11 l-254 0 -16 30 
-16 31 c47 26 105 59 166 94 143 83 293 169 333 193 36 21 182 106 332 193 
l13 -37 13 -36 278 -3 c152 -1 281 -6 286 -11 5 -5 10 -25 12 -44 l3 -36 
c-7 -1 -15 -2 -25 -4 -35 -6 -104 -27 -152 -46 -48 -19 -187 -90 -308 -159 
-51 -29 -154 -88 -287 -164 z" fill="rgb(75, 105, 188)"/>
<path d="M7420 7986l-4 -4 c-4 -4 -168 -9 -364 -12 l-362 -14 c-18 10 -36 21 -54 31 
-19 12 -38 23 -56 33 -21 12 -56 32 -102 58 l14 16 c16 18 21 18 95 5 45 -8 109 -12 153 -9 
41 3 104 5 140 5 36 0 146 -4 245 -10 l181 -9 c37 -29 76 -59 114 -90 z" fill="rgb(98, 53, 125)"/>
<path d="M5197 8328l6 42 c3 23 7 42 9 43 1 1 63 5 136 10 72 4 211 7 307 8 96 0 177 4 180 9 
l4 7 c42 -25 85 -50 129 -74 40 -24 80 -47 120 -70 126 -73 248 -143 342 -197 
l-25 -47 c-23 -45 -25 -46 -82 -53 -31 -4 -94 -4 -138 0 -67 5 -83 4 -94 -10 
-7 -9 -28 -16 -46 -16 -18 0 -38 7 -45 15 -7 9 -29 15 -53 15 -24 0 -48 -7 -60 -17 
l-20 -19 c-111 64 -207 120 -272 157 -247 144 -307 175 -372 191 -10 2 -18 4 -26 6 
z" fill="rgb(140, 85, 168)"/>
<path d="M7306 8076l-181 9 c-99 6 -209 10 -245 10 -36 0 -99 -2 -140 -5 -44 -3 -108 1 -153 9 
-74 13 -79 13 -95 -5 l-14 -16 c-15 9 -31 18 -48 28 -94 54 -216 124 -342 197 
l9 12 c5 6 30 14 57 19 38 7 52 6 60 -5 6 -8 46 -18 94 -24 73 -9 85 -8 100 7 
16 16 21 16 70 3 28 -8 98 -22 155 -30 57 -8 134 -22 170 -30 37 -8 105 -22 152 -30 
47 -8 102 -16 123 -17 l38 -1 c41 -27 81 -53 113 -76 25 -17 51 -36 77 -55 
z" fill="rgb(98, 60, 133)"/>
<path d="M7116 8207l-38 1 c-21 1 -76 9 -123 17 -47 8 -115 22 -152 30 -36 8 -113 22 -170 30 
-57 8 -127 22 -155 30 -49 13 -54 13 -70 -3 -15 -15 -27 -16 -100 -7 -48 6 -88 16 -94 24 
-8 11 -22 12 -60 5 -27 -5 -52 -13 -57 -19 l-9 -12 c-40 23 -80 46 -120 70 
-44 24 -87 49 -129 74 -93 53 -181 105 -255 148 -96 56 -168 98 -196 115 
-58 36 -112 70 -118 75 l-12 10 c58 -2 113 -5 167 -10 22 -2 47 -4 75 -8 
93 -10 211 -27 293 -41 106 -19 265 -55 353 -80 97 -28 242 -81 372 -136 
116 -49 286 -130 377 -180 26 -14 58 -33 91 -53 42 -25 87 -53 130 -80 z" fill="rgb(88, 58, 132)"/>
<path d="M6986 8287c-33 20 -65 39 -91 53 -91 50 -261 131 -377 180 -130 55 -275 108 -372 136 
-88 25 -247 61 -353 80 -82 14 -200 31 -293 41 l0 57 0 56 -50 0 -50 0 0 55 
0 55 100 0 c55 0 242 0 415 0 173 0 373 0 444 0 l128 0 7 -50 7 -50 52 -2 
c29 -2 94 -1 146 1 l98 3 c0 -7 0 -13 0 -17 0 -11 0 -35 1 -52 l2 -33 79 0 
c44 0 86 -3 95 -6 11 -4 16 -19 16 -50 l0 -44 56 0 56 0 -4 -47 c-3 -39 0 -49 14 -55 
10 -5 31 -8 47 -8 27 0 30 -4 36 -42 l7 -42 c-19 -1 -42 -1 -67 -3 l-145 -6 6 -36 
c4 -20 8 -38 10 -40 2 -2 23 -6 49 -8 33 -4 45 -10 45 -22 0 -9 -3 -26 -6 -37 
-4 -17 -16 -23 -50 -28 -26 -3 -47 -12 -50 -21 l-8 -18 z" fill="rgb(209, 153, 178)"/>
<path d="M5105 8334l-3 36 c-2 19 -7 39 -12 44 -5 5 -134 10 -286 11 l-278 3 -13 36 
-13 37 c13 7 25 14 37 22 41 23 83 48 123 71 l465 -4 459 5 c74 -43 162 -95 255 -148 
l-4 -7 c-3 -5 -84 -9 -180 -9 -96 -1 -235 -4 -307 -8 -73 -5 -135 -9 -136 -10 
-2 -1 -6 -20 -9 -43 l-6 -42 c-38 9 -60 10 -92 6 z" fill="rgb(117, 95, 186)"/>
<path d="M3500 9096c14 0 28 0 42 0 l157 1 -5 -98 -5 -99 50 0 c35 0 51 4 55 16 3 9 6 30 6 49 
l0 33 95 7 c68 5 100 4 110 -5 8 -6 23 -9 35 -6 11 3 97 8 191 10 l171 5 -6 -22 
c-3 -12 -6 -34 -6 -49 0 -27 -2 -28 -50 -28 -42 0 -50 -3 -50 -19 0 -10 3 -33 6 -50 
6 -29 9 -31 50 -31 l44 0 0 -42 0 -43 c-27 -5 -52 -10 -75 -15 -102 -22 -250 -62 -330 -90 
-80 -27 -221 -84 -314 -125 -42 -19 -99 -46 -159 -77 l-13 43 -12 37 -91 4 
c-50 1 -95 1 -101 -2 -5 -3 -52 -4 -102 -2 l-93 3 0 50 c0 41 -3 49 -19 49 
-10 0 -32 -3 -49 -6 -24 -5 -31 -12 -36 -39 -6 -32 -9 -34 -81 -49 -5 -1 -9 -2 -13 -3 
l-7 55 -8 52 52 0 51 0 6 40 7 40 48 0 49 0 0 104 0 103 45 5 45 6 0 46 
0 46 49 0 48 0 5 45 6 45 43 3 c20 1 87 2 159 3 z" fill="rgb(189, 169, 196)"/>
<path d="M4982 8793c20 1 40 2 58 2 78 2 150 2 218 0 l12 -10 c6 -5 60 -39 118 -75 
28 -17 100 -59 196 -115 l-459 -5 -465 4 c117 69 219 131 250 151 l72 48 
z" fill="rgb(100, 81, 168)"/>
<path d="M3900 10240l1220 0 2070 0 -2 -67 c-2 -38 1 -89 6 -115 l9 -48 48 0 49 0 0 -56 
0 -55 -52 3 -53 3 2 -159 2 -158 -54 7 -55 6 0 -51 0 -51 -97 3 -98 3 -3 43 
-3 42 -50 0 -49 0 0 -50 0 -50 50 0 50 0 0 -50 0 -50 -45 0 -45 0 0 -50 
0 -50 44 0 c44 0 44 0 51 -40 7 -40 7 -40 50 -40 24 0 47 -4 50 -10 3 -5 26 -10 50 -10 
l44 0 3 -47 3 -48 45 -3 c24 -2 48 -9 52 -15 4 -7 8 -27 8 -46 l0 -33 c-47 -1 -98 -1 -147 0 
l-262 3 3 -48 c2 -17 3 -36 3 -51 l-98 -3 c-52 -2 -117 -3 -146 -1 l-52 2 -7 50 
-7 50 -128 0 c-71 0 -271 0 -444 0 -173 0 -360 0 -415 0 l-100 0 0 -55 0 -55 50 0 
50 0 0 -56 0 -57 c-28 4 -53 6 -75 8 -54 5 -109 8 -167 10 -68 2 -140 2 -218 0 
-18 0 -38 -1 -58 -2 -109 -4 -241 -14 -317 -23 -70 -9 -181 -27 -275 -45 
l0 43 0 42 -44 0 c-41 0 -44 2 -50 31 -3 17 -6 40 -6 50 0 16 8 19 50 19 
48 0 50 1 50 28 0 15 3 37 6 49 l6 22 -171 -5 c-94 -2 -180 -7 -191 -10 
-12 -3 -27 0 -35 6 -10 9 -42 10 -110 5 l-95 -7 0 -33 c0 -19 -3 -40 -6 -49 
-4 -12 -20 -16 -55 -16 l-50 0 5 99 5 98 -157 -1 c-14 0 -28 0 -42 0 l0 52 
0 52 45 0 45 0 2 43 c1 23 3 69 3 102 l0 60 94 3 c58 2 98 -1 106 -8 10 -8 43 -9 104 -5 
l89 7 7 44 c6 43 6 43 52 46 l45 3 6 115 c4 63 5 131 2 150 l-5 35 -152 0 
-153 0 0 53 0 53 49 -7 c27 -3 51 -2 54 2 3 5 3 30 0 57 l-6 47 -48 0 -49 0 0 60 
0 60 49 0 c42 0 49 3 55 23 3 12 6 39 6 60 l0 37 z" fill="rgb(219, 180, 199)"/>
</g>
</svg>
